<?xml version="1.0" encoding="UTF-8" standalone="no"?>
<!-- Generator: Gravit.io -->
<svg xmlns="http://www.w3.org/2000/svg" xmlns:xlink="http://www.w3.org/1999/xlink" style="isolation:isolate" viewBox="0 0 195.63 195.63" width="195.63pt" height="195.63pt"><defs><clipPath id="_clipPath_XmHJgCOmWn99wRX8Dn1cgxJ5nIH7bKkl"><rect width="195.63" height="195.63"/></clipPath></defs><g clip-path="url(#_clipPath_XmHJgCOmWn99wRX8Dn1cgxJ5nIH7bKkl)"><linearGradient id="_lgradient_1" x1="0" y1="1" x2="1" y2="-4.440892098500626e-16"><stop offset="0%" style="stop-color:#2B8EAF"/><stop offset="100%" style="stop-color:#B222A8"/></linearGradient><rect width="195.63" height="195.63" style="fill:url(#_lgradient_1);"/><g><circle vector-effect="non-scaling-stroke" cx="97.815" cy="97.81500000000001" r="85.29999999999998" fill="none"/><path d=" M 97.815 58.069 C 81.738 58.065 67.243 67.747 61.088 82.599 C 54.933 97.451 58.332 114.548 69.698 125.917 C 81.065 137.286 98.161 140.688 113.014 134.537 C 127.868 128.385 137.552 113.892 137.552 97.815 C 137.524 75.879 119.751 58.102 97.815 58.069 L 97.815 58.069 Z " fill="rgb(255,255,255)"/><path d=" M 96.149 20.851 C 68.986 24.043 28.551 62.141 21.68 97.815 C 13.997 137.683 38.396 169.041 100.492 170.131 C 157.269 171.134 169.294 145.017 169.721 112.09 C 170.471 54.79 141.171 15.567 96.149 20.851 Z  M 97.815 148.017 C 77.505 148.02 59.193 135.788 51.42 117.025 C 43.646 98.262 47.941 76.663 62.302 62.302 C 76.663 47.941 98.262 43.646 117.025 51.42 C 135.788 59.193 148.02 77.505 148.017 97.815 C 147.983 125.527 125.527 147.983 97.815 148.017 L 97.815 148.017 Z " fill="rgb(255,255,255)"/></g></g></svg>