<?xml version="1.0" standalone="no"?>
<!DOCTYPE svg PUBLIC "-//W3C//DTD SVG 20010904//EN"
 "http://www.w3.org/TR/2001/REC-SVG-20010904/DTD/svg10.dtd">
<svg version="1.0" xmlns="http://www.w3.org/2000/svg"
 width="197.000000pt" height="197.000000pt" viewBox="0 0 197.000000 197.000000"
 preserveAspectRatio="xMidYMid meet">
<metadata>
Created by potrace 1.14, written by Peter Selinger 2001-2017
</metadata>
<g transform="translate(0.000000,197.000000) scale(0.100000,-0.100000)"
fill="#000000" stroke="none">
<path d="M1047 1875 c-1 -2 -29 -5 -62 -8 -82 -9 -127 -23 -216 -67 -63 -31
-169 -99 -189 -120 -3 -3 -35 -31 -71 -62 -212 -183 -377 -462 -405 -685 -28
-220 26 -394 166 -534 65 -65 94 -85 181 -127 92 -44 224 -87 299 -98 146 -20
379 -25 499 -11 168 20 312 82 403 172 69 70 129 193 144 298 3 23 8 53 10 67
6 37 5 281 -1 310 -3 14 -7 46 -9 71 -11 110 -73 310 -125 402 -120 214 -290
344 -491 376 -79 12 -129 18 -133 16z m56 -330 c47 -10 140 -47 182 -73 125
-78 214 -198 255 -344 23 -84 21 -233 -4 -311 -99 -308 -427 -480 -725 -380
-230 76 -388 286 -396 525 -6 165 64 339 175 434 14 12 36 32 50 43 40 36 160
90 230 105 62 13 174 14 233 1z"/>
<path d="M860 1421 c-216 -69 -342 -250 -327 -469 11 -170 100 -302 253 -377
369 -181 766 176 629 565 -38 107 -125 202 -229 251 -80 38 -94 41 -191 44
-56 3 -97 -2 -135 -14z"/>
</g>
</svg>
