<?xml version="1.0" encoding="UTF-8" standalone="no"?><!-- Generator: Gravit.io --><svg xmlns="http://www.w3.org/2000/svg" xmlns:xlink="http://www.w3.org/1999/xlink" style="isolation:isolate" viewBox="0 0 120 120" width="120pt" height="120pt"><defs><clipPath id="_clipPath_m6oSeBcurEuBuzEIeHgitJVXcTi619aX"><rect width="120" height="120"/></clipPath></defs><g clip-path="url(#_clipPath_m6oSeBcurEuBuzEIeHgitJVXcTi619aX)"><clipPath id="_clipPath_gQh1p9RcZAMzO1heDk6HaZgMfSFwphrt"><rect x="0" y="0" width="120" height="120" transform="matrix(1,0,0,1,0,0)" fill="rgb(255,255,255)"/></clipPath><g clip-path="url(#_clipPath_gQh1p9RcZAMzO1heDk6HaZgMfSFwphrt)"><g><clipPath id="_clipPath_ERJ2KSExjPCRdELFS5HyLSChx6yu0rFR"><rect x="0" y="0" width="120" height="120" transform="matrix(1,0,0,1,0,0)" fill="rgb(255,255,255)"/></clipPath><g clip-path="url(#_clipPath_ERJ2KSExjPCRdELFS5HyLSChx6yu0rFR)"><g><g><clipPath id="_clipPath_6kY6wQ3sgSv39ETtH54dpiEC0D3YTHjC"><rect x="0" y="0" width="120" height="120" transform="matrix(-1,0,0,-1,120,120)" fill="rgb(255,255,255)"/></clipPath><g clip-path="url(#_clipPath_6kY6wQ3sgSv39ETtH54dpiEC0D3YTHjC)"><g><g><g><g><path d=" M 75.457 55.92 L 75.457 55.92 C 74.683 56.694 73.427 56.694 72.653 55.92 L 58.62 41.885 C 57.846 41.111 57.846 39.854 58.62 39.081 L 58.62 39.081 C 59.393 38.307 60.65 38.307 61.424 39.081 L 75.457 53.116 C 76.231 53.89 76.231 55.146 75.457 55.92 Z " fill="rgb(255,255,255)"/><path d=" M 44.543 55.92 L 44.543 55.92 C 43.77 55.146 43.77 53.89 44.543 53.116 L 58.577 39.081 C 59.351 38.307 60.607 38.307 61.381 39.081 L 61.381 39.081 C 62.155 39.854 62.155 41.111 61.381 41.885 L 47.347 55.92 C 46.573 56.694 45.317 56.694 44.543 55.92 Z " fill="rgb(255,255,255)"/></g></g><clipPath id="_clipPath_JtHQAqcDuIuwHRK0a4cxgndRJEPXVr7S"><rect x="0" y="60" width="120" height="21.5" transform="matrix(1,0,0,1,0,0)" fill="rgb(255,255,255)"/></clipPath><g clip-path="url(#_clipPath_JtHQAqcDuIuwHRK0a4cxgndRJEPXVr7S)"><g><g><path d=" M 40.888 77.599 L 40.888 77.599 L 40.888 77.599 Q 39.862 77.599 38.845 77.536 L 38.845 77.536 L 38.845 77.536 Q 37.828 77.473 36.73 77.239 L 36.73 77.239 L 36.73 65.143 L 36.73 65.143 Q 37.594 64.981 38.62 64.9 L 38.62 64.9 L 38.62 64.9 Q 39.646 64.819 40.528 64.819 L 40.528 64.819 L 40.528 64.819 Q 41.716 64.819 42.715 64.99 L 42.715 64.99 L 42.715 64.99 Q 43.714 65.161 44.434 65.575 L 44.434 65.575 L 44.434 65.575 Q 45.154 65.989 45.559 66.664 L 45.559 66.664 L 45.559 66.664 Q 45.964 67.339 45.964 68.329 L 45.964 68.329 L 45.964 68.329 Q 45.964 69.823 44.524 70.687 L 44.524 70.687 L 44.524 70.687 Q 45.712 71.137 46.144 71.911 L 46.144 71.911 L 46.144 71.911 Q 46.576 72.685 46.576 73.657 L 46.576 73.657 L 46.576 73.657 Q 46.576 75.619 45.145 76.609 L 45.145 76.609 L 45.145 76.609 Q 43.714 77.599 40.888 77.599 Z  M 41.23 72.001 L 39.466 72.001 L 39.466 75.223 L 39.466 75.223 Q 39.772 75.259 40.132 75.277 L 40.132 75.277 L 40.132 75.277 Q 40.492 75.295 40.924 75.295 L 40.924 75.295 L 40.924 75.295 Q 42.184 75.295 42.958 74.935 L 42.958 74.935 L 42.958 74.935 Q 43.732 74.575 43.732 73.603 L 43.732 73.603 L 43.732 73.603 Q 43.732 72.739 43.084 72.37 L 43.084 72.37 L 43.084 72.37 Q 42.436 72.001 41.23 72.001 L 41.23 72.001 L 41.23 72.001 Z  M 39.466 67.141 L 39.466 69.859 L 40.834 69.859 L 40.834 69.859 Q 42.13 69.859 42.688 69.526 L 42.688 69.526 L 42.688 69.526 Q 43.246 69.193 43.246 68.455 L 43.246 68.455 L 43.246 68.455 Q 43.246 67.699 42.67 67.393 L 42.67 67.393 L 42.67 67.393 Q 42.094 67.087 40.978 67.087 L 40.978 67.087 L 40.978 67.087 Q 40.618 67.087 40.204 67.096 L 40.204 67.096 L 40.204 67.096 Q 39.79 67.105 39.466 67.141 L 39.466 67.141 L 39.466 67.141 Z  M 60.022 77.437 L 57.016 77.437 L 57.016 77.437 Q 56.809 76.789 56.56 76.105 L 56.56 76.105 L 56.56 76.105 Q 56.311 75.421 56.072 74.737 L 56.072 74.737 L 51.237 74.737 L 51.237 74.737 Q 51 75.421 50.763 76.105 L 50.763 76.105 L 50.763 76.105 Q 50.527 76.789 50.302 77.437 L 50.302 77.437 L 47.386 77.437 L 47.386 77.437 Q 48.088 75.421 48.717 73.711 L 48.717 73.711 L 48.717 73.711 Q 49.347 72.001 49.95 70.489 L 49.95 70.489 L 49.95 70.489 Q 50.552 68.977 51.137 67.618 L 51.137 67.618 L 51.137 67.618 Q 51.721 66.259 52.351 64.963 L 52.351 64.963 L 55.068 64.963 L 55.068 64.963 Q 55.678 66.259 56.27 67.618 L 56.27 67.618 L 56.27 67.618 Q 56.863 68.977 57.464 70.489 L 57.464 70.489 L 57.464 70.489 Q 58.065 72.001 58.694 73.711 L 58.694 73.711 L 58.694 73.711 Q 59.322 75.421 60.022 77.437 L 60.022 77.437 L 60.022 77.437 Z  M 53.641 67.789 L 53.641 67.789 L 53.641 67.789 Q 53.548 68.059 53.376 68.527 L 53.376 68.527 L 53.376 68.527 Q 53.205 68.995 52.964 69.607 L 52.964 69.607 L 52.964 69.607 Q 52.724 70.219 52.451 70.957 L 52.451 70.957 L 52.451 70.957 Q 52.177 71.695 51.895 72.505 L 51.895 72.505 L 55.405 72.505 L 55.405 72.505 Q 55.12 71.695 54.852 70.957 L 54.852 70.957 L 54.852 70.957 Q 54.584 70.219 54.342 69.607 L 54.342 69.607 L 54.342 69.607 Q 54.101 68.995 53.918 68.527 L 53.918 68.527 L 53.918 68.527 Q 53.736 68.059 53.641 67.789 Z  M 66.862 77.689 L 66.862 77.689 L 66.862 77.689 Q 63.82 77.689 62.227 75.997 L 62.227 75.997 L 62.227 75.997 Q 60.634 74.305 60.634 71.191 L 60.634 71.191 L 60.634 71.191 Q 60.634 69.643 61.12 68.428 L 61.12 68.428 L 61.12 68.428 Q 61.606 67.213 62.452 66.376 L 62.452 66.376 L 62.452 66.376 Q 63.298 65.539 64.468 65.107 L 64.468 65.107 L 64.468 65.107 Q 65.638 64.675 67.006 64.675 L 67.006 64.675 L 67.006 64.675 Q 67.798 64.675 68.446 64.792 L 68.446 64.792 L 68.446 64.792 Q 69.094 64.909 69.58 65.062 L 69.58 65.062 L 69.58 65.062 Q 70.066 65.215 70.39 65.377 L 70.39 65.377 L 70.39 65.377 Q 70.714 65.539 70.858 65.629 L 70.858 65.629 L 70.048 67.897 L 70.048 67.897 Q 69.472 67.591 68.707 67.375 L 68.707 67.375 L 68.707 67.375 Q 67.942 67.159 66.97 67.159 L 66.97 67.159 L 66.97 67.159 Q 66.322 67.159 65.701 67.375 L 65.701 67.375 L 65.701 67.375 Q 65.08 67.591 64.603 68.068 L 64.603 68.068 L 64.603 68.068 Q 64.126 68.545 63.838 69.301 L 63.838 69.301 L 63.838 69.301 Q 63.55 70.057 63.55 71.137 L 63.55 71.137 L 63.55 71.137 Q 63.55 72.001 63.739 72.748 L 63.739 72.748 L 63.739 72.748 Q 63.928 73.495 64.351 74.035 L 64.351 74.035 L 64.351 74.035 Q 64.774 74.575 65.458 74.89 L 65.458 74.89 L 65.458 74.89 Q 66.142 75.205 67.114 75.205 L 67.114 75.205 L 67.114 75.205 Q 67.726 75.205 68.212 75.133 L 68.212 75.133 L 68.212 75.133 Q 68.698 75.061 69.076 74.962 L 69.076 74.962 L 69.076 74.962 Q 69.454 74.863 69.742 74.737 L 69.742 74.737 L 69.742 74.737 Q 70.03 74.611 70.264 74.503 L 70.264 74.503 L 71.038 76.753 L 71.038 76.753 Q 70.444 77.113 69.364 77.401 L 69.364 77.401 L 69.364 77.401 Q 68.284 77.689 66.862 77.689 Z  M 83.53 77.437 L 80.192 77.437 L 80.192 77.437 Q 79.817 76.824 79.307 76.112 L 79.307 76.112 L 79.307 76.112 Q 78.798 75.4 78.186 74.688 L 78.186 74.688 L 78.186 74.688 Q 77.574 73.975 76.932 73.317 L 76.932 73.317 L 76.932 73.317 Q 76.289 72.659 75.646 72.154 L 75.646 72.154 L 75.646 77.437 L 72.838 77.437 L 72.838 64.963 L 75.646 64.963 L 75.646 69.654 L 75.646 69.654 Q 76.744 68.527 77.851 67.269 L 77.851 67.269 L 77.851 67.269 Q 78.958 66.012 79.912 64.963 L 79.912 64.963 L 83.242 64.963 L 83.242 64.963 Q 81.964 66.459 80.677 67.865 L 80.677 67.865 L 80.677 67.865 Q 79.39 69.272 77.968 70.696 L 77.968 70.696 L 77.968 70.696 Q 79.467 71.94 80.855 73.652 L 80.855 73.652 L 80.855 73.652 Q 82.242 75.364 83.53 77.437 L 83.53 77.437 L 83.53 77.437 Z " fill-rule="evenodd" fill="rgb(255,255,255)"/></g></g></g></g></g></g></g></g></g></g></g></g></svg>