<?xml version="1.0" encoding="UTF-8" standalone="no"?><!-- Generator: Gravit.io --><svg xmlns="http://www.w3.org/2000/svg" xmlns:xlink="http://www.w3.org/1999/xlink" style="isolation:isolate" viewBox="0 0 240 240" width="240pt" height="240pt"><defs><clipPath id="_clipPath_xWkPHSr1JwwWMsx3PqXBei93fYnpV95y"><rect width="240" height="240"/></clipPath></defs><g clip-path="url(#_clipPath_xWkPHSr1JwwWMsx3PqXBei93fYnpV95y)"><clipPath id="_clipPath_u2MjmFwRDdWwmGcUFFimYQOpJNWK4ggL"><rect x="0" y="0" width="240" height="240" transform="matrix(1,0,0,1,0,0)" fill="rgb(255,255,255)"/></clipPath><g clip-path="url(#_clipPath_u2MjmFwRDdWwmGcUFFimYQOpJNWK4ggL)"><g><clipPath id="_clipPath_9SUTtLJ0KPpignyT2x4UbhP5lWV42KVm"><rect x="0" y="0" width="240" height="240" transform="matrix(-1,0,0,-1,240,240)" fill="rgb(255,255,255)"/></clipPath><g clip-path="url(#_clipPath_9SUTtLJ0KPpignyT2x4UbhP5lWV42KVm)"><g><g><g><path d=" M 150.914 111.839 L 150.914 111.839 C 149.366 113.387 146.854 113.387 145.306 111.839 L 117.239 83.769 C 115.691 82.221 115.691 79.708 117.239 78.161 L 117.239 78.161 C 118.786 76.613 121.299 76.613 122.847 78.161 L 150.914 106.231 C 152.461 107.779 152.461 110.292 150.914 111.839 Z " fill="rgb(255,255,255)"/><path d=" M 89.086 111.839 L 89.086 111.839 C 87.539 110.292 87.539 107.779 89.086 106.231 L 117.153 78.161 C 118.701 76.613 121.214 76.613 122.761 78.161 L 122.761 78.161 C 124.309 79.708 124.309 82.221 122.761 83.769 L 94.694 111.839 C 93.146 113.387 90.634 113.387 89.086 111.839 Z " fill="rgb(255,255,255)"/></g></g><clipPath id="_clipPath_evuVTO0inp2s4vaFIKl8NzcpPwY1S8Gr"><rect x="0" y="120" width="240" height="43" transform="matrix(1,0,0,1,0,0)" fill="rgb(255,255,255)"/></clipPath><g clip-path="url(#_clipPath_evuVTO0inp2s4vaFIKl8NzcpPwY1S8Gr)"><g><path d=" M 81.776 155.198 L 81.776 155.198 L 81.776 155.198 Q 79.724 155.198 77.69 155.072 L 77.69 155.072 L 77.69 155.072 Q 75.656 154.946 73.46 154.478 L 73.46 154.478 L 73.46 130.286 L 73.46 130.286 Q 75.188 129.962 77.24 129.8 L 77.24 129.8 L 77.24 129.8 Q 79.292 129.638 81.056 129.638 L 81.056 129.638 L 81.056 129.638 Q 83.432 129.638 85.43 129.98 L 85.43 129.98 L 85.43 129.98 Q 87.428 130.322 88.868 131.15 L 88.868 131.15 L 88.868 131.15 Q 90.308 131.978 91.118 133.328 L 91.118 133.328 L 91.118 133.328 Q 91.928 134.678 91.928 136.658 L 91.928 136.658 L 91.928 136.658 Q 91.928 139.646 89.048 141.374 L 89.048 141.374 L 89.048 141.374 Q 91.424 142.274 92.288 143.822 L 92.288 143.822 L 92.288 143.822 Q 93.152 145.37 93.152 147.314 L 93.152 147.314 L 93.152 147.314 Q 93.152 151.238 90.29 153.218 L 90.29 153.218 L 90.29 153.218 Q 87.428 155.198 81.776 155.198 Z  M 82.46 144.002 L 78.932 144.002 L 78.932 150.446 L 78.932 150.446 Q 79.544 150.518 80.264 150.554 L 80.264 150.554 L 80.264 150.554 Q 80.984 150.59 81.848 150.59 L 81.848 150.59 L 81.848 150.59 Q 84.368 150.59 85.916 149.87 L 85.916 149.87 L 85.916 149.87 Q 87.464 149.15 87.464 147.206 L 87.464 147.206 L 87.464 147.206 Q 87.464 145.478 86.168 144.74 L 86.168 144.74 L 86.168 144.74 Q 84.872 144.002 82.46 144.002 L 82.46 144.002 L 82.46 144.002 Z  M 78.932 134.282 L 78.932 139.718 L 81.668 139.718 L 81.668 139.718 Q 84.26 139.718 85.376 139.052 L 85.376 139.052 L 85.376 139.052 Q 86.492 138.386 86.492 136.91 L 86.492 136.91 L 86.492 136.91 Q 86.492 135.398 85.34 134.786 L 85.34 134.786 L 85.34 134.786 Q 84.188 134.174 81.956 134.174 L 81.956 134.174 L 81.956 134.174 Q 81.236 134.174 80.408 134.192 L 80.408 134.192 L 80.408 134.192 Q 79.58 134.21 78.932 134.282 L 78.932 134.282 L 78.932 134.282 Z  M 120.044 154.874 L 114.032 154.874 L 114.032 154.874 Q 113.617 153.578 113.119 152.21 L 113.119 152.21 L 113.119 152.21 Q 112.622 150.842 112.143 149.474 L 112.143 149.474 L 102.473 149.474 L 102.473 149.474 Q 101.999 150.842 101.526 152.21 L 101.526 152.21 L 101.526 152.21 Q 101.053 153.578 100.604 154.874 L 100.604 154.874 L 94.772 154.874 L 94.772 154.874 Q 96.175 150.842 97.434 147.422 L 97.434 147.422 L 97.434 147.422 Q 98.693 144.002 99.899 140.978 L 99.899 140.978 L 99.899 140.978 Q 101.104 137.954 102.273 135.236 L 102.273 135.236 L 102.273 135.236 Q 103.442 132.518 104.701 129.926 L 104.701 129.926 L 110.135 129.926 L 110.135 129.926 Q 111.355 132.518 112.54 135.236 L 112.54 135.236 L 112.54 135.236 Q 113.725 137.954 114.928 140.978 L 114.928 140.978 L 114.928 140.978 Q 116.13 144.002 117.387 147.422 L 117.387 147.422 L 117.387 147.422 Q 118.644 150.842 120.044 154.874 L 120.044 154.874 L 120.044 154.874 Z  M 107.282 135.578 L 107.282 135.578 L 107.282 135.578 Q 107.095 136.118 106.752 137.054 L 106.752 137.054 L 106.752 137.054 Q 106.409 137.99 105.928 139.214 L 105.928 139.214 L 105.928 139.214 Q 105.448 140.438 104.901 141.914 L 104.901 141.914 L 104.901 141.914 Q 104.354 143.39 103.789 145.01 L 103.789 145.01 L 110.81 145.01 L 110.81 145.01 Q 110.239 143.39 109.703 141.914 L 109.703 141.914 L 109.703 141.914 Q 109.167 140.438 108.684 139.214 L 108.684 139.214 L 108.684 139.214 Q 108.202 137.99 107.836 137.054 L 107.836 137.054 L 107.836 137.054 Q 107.471 136.118 107.282 135.578 Z  M 133.724 155.378 L 133.724 155.378 L 133.724 155.378 Q 127.64 155.378 124.454 151.994 L 124.454 151.994 L 124.454 151.994 Q 121.268 148.61 121.268 142.382 L 121.268 142.382 L 121.268 142.382 Q 121.268 139.286 122.24 136.856 L 122.24 136.856 L 122.24 136.856 Q 123.212 134.426 124.904 132.752 L 124.904 132.752 L 124.904 132.752 Q 126.596 131.078 128.936 130.214 L 128.936 130.214 L 128.936 130.214 Q 131.276 129.35 134.012 129.35 L 134.012 129.35 L 134.012 129.35 Q 135.596 129.35 136.892 129.584 L 136.892 129.584 L 136.892 129.584 Q 138.188 129.818 139.16 130.124 L 139.16 130.124 L 139.16 130.124 Q 140.132 130.43 140.78 130.754 L 140.78 130.754 L 140.78 130.754 Q 141.428 131.078 141.716 131.258 L 141.716 131.258 L 140.096 135.794 L 140.096 135.794 Q 138.944 135.182 137.414 134.75 L 137.414 134.75 L 137.414 134.75 Q 135.884 134.318 133.94 134.318 L 133.94 134.318 L 133.94 134.318 Q 132.644 134.318 131.402 134.75 L 131.402 134.75 L 131.402 134.75 Q 130.16 135.182 129.206 136.136 L 129.206 136.136 L 129.206 136.136 Q 128.252 137.09 127.676 138.602 L 127.676 138.602 L 127.676 138.602 Q 127.1 140.114 127.1 142.274 L 127.1 142.274 L 127.1 142.274 Q 127.1 144.002 127.478 145.496 L 127.478 145.496 L 127.478 145.496 Q 127.856 146.99 128.702 148.07 L 128.702 148.07 L 128.702 148.07 Q 129.548 149.15 130.916 149.78 L 130.916 149.78 L 130.916 149.78 Q 132.284 150.41 134.228 150.41 L 134.228 150.41 L 134.228 150.41 Q 135.452 150.41 136.424 150.266 L 136.424 150.266 L 136.424 150.266 Q 137.396 150.122 138.152 149.924 L 138.152 149.924 L 138.152 149.924 Q 138.908 149.726 139.484 149.474 L 139.484 149.474 L 139.484 149.474 Q 140.06 149.222 140.528 149.006 L 140.528 149.006 L 142.076 153.506 L 142.076 153.506 Q 140.888 154.226 138.728 154.802 L 138.728 154.802 L 138.728 154.802 Q 136.568 155.378 133.724 155.378 Z  M 167.06 154.874 L 160.383 154.874 L 160.383 154.874 Q 159.633 153.648 158.614 152.223 L 158.614 152.223 L 158.614 152.223 Q 157.596 150.799 156.372 149.375 L 156.372 149.375 L 156.372 149.375 Q 155.148 147.95 153.863 146.634 L 153.863 146.634 L 153.863 146.634 Q 152.577 145.318 151.292 144.308 L 151.292 144.308 L 151.292 154.874 L 145.676 154.874 L 145.676 129.926 L 151.292 129.926 L 151.292 139.307 L 151.292 139.307 Q 153.488 137.053 155.702 134.538 L 155.702 134.538 L 155.702 134.538 Q 157.916 132.024 159.824 129.926 L 159.824 129.926 L 166.484 129.926 L 166.484 129.926 Q 163.928 132.917 161.354 135.73 L 161.354 135.73 L 161.354 135.73 Q 158.78 138.543 155.936 141.392 L 155.936 141.392 L 155.936 141.392 Q 158.934 143.879 161.709 147.304 L 161.709 147.304 L 161.709 147.304 Q 164.484 150.728 167.06 154.874 L 167.06 154.874 L 167.06 154.874 Z " fill-rule="evenodd" fill="rgb(255,255,255)"/></g></g></g></g></g></g></g></svg>