<?xml version="1.0" encoding="UTF-8" standalone="no"?><!-- Generator: Gravit.io --><svg xmlns="http://www.w3.org/2000/svg" xmlns:xlink="http://www.w3.org/1999/xlink" style="isolation:isolate" viewBox="0 0 240 240" width="240pt" height="240pt"><defs><clipPath id="_clipPath_d2h8D0tu5XvZgx7yiK5k0Bg5Uk4aQeWP"><rect width="240" height="240"/></clipPath></defs><g clip-path="url(#_clipPath_d2h8D0tu5XvZgx7yiK5k0Bg5Uk4aQeWP)"><rect width="240" height="240" style="fill:rgb(0,0,0)" fill-opacity="0"/><clipPath id="_clipPath_7atVLvuItYOfYDMPUqgWMFbVPqrcZpN4"><rect x="0" y="0" width="240" height="240" transform="matrix(1,0,0,1,0,0)" fill="rgb(255,255,255)"/></clipPath><g clip-path="url(#_clipPath_7atVLvuItYOfYDMPUqgWMFbVPqrcZpN4)"><g><g><path d=" M 197.963 147.187 L 197.963 147.187 C 194.061 151.09 187.724 151.09 183.821 147.187 L 113.037 76.394 C 109.134 72.492 109.134 66.154 113.037 62.251 L 113.037 62.251 C 116.939 58.348 123.276 58.348 127.179 62.251 L 197.963 133.044 C 201.866 136.946 201.866 143.284 197.963 147.187 Z " fill="rgb(255,255,255)"/><path d=" M 42.037 147.187 L 42.037 147.187 C 38.134 143.284 38.134 136.946 42.037 133.044 L 112.821 62.251 C 116.724 58.348 123.061 58.348 126.963 62.251 L 126.963 62.251 C 130.866 66.154 130.866 72.492 126.963 76.394 L 56.179 147.187 C 52.276 151.09 45.939 151.09 42.037 147.187 Z " fill="rgb(255,255,255)"/><path d=" M 79.788 150.842 L 79.788 150.842 L 79.788 150.842 Q 81.216 150.842 83.904 150.73 L 83.904 150.73 L 83.904 150.73 Q 86.592 150.618 87.46 150.618 L 87.46 150.618 L 88.216 150.618 L 88.216 150.618 Q 91.884 150.618 93.676 152.116 L 93.676 152.116 L 93.676 152.116 Q 95.468 153.614 95.468 156.05 L 95.468 156.05 L 95.468 156.05 Q 95.468 159.522 90.932 160.866 L 90.932 160.866 L 90.932 160.95 L 90.932 160.95 Q 93.564 161.342 95.09 163.008 L 95.09 163.008 L 95.09 163.008 Q 96.616 164.674 96.616 166.998 L 96.616 166.998 L 96.616 166.998 Q 96.616 170.106 94.502 171.842 L 94.502 171.842 L 94.502 171.842 Q 92.388 173.578 88.3 173.578 L 88.3 173.578 L 88.3 173.578 Q 87.18 173.578 84.674 173.396 L 84.674 173.396 L 84.674 173.396 Q 82.168 173.214 80.684 173.214 L 80.684 173.214 L 80.684 173.214 Q 80.516 173.214 80.152 173.228 L 80.152 173.228 L 80.152 173.228 Q 79.788 173.242 79.62 173.242 L 79.62 173.242 L 79.62 173.242 Q 79.452 172.752 79.62 172.262 L 79.62 172.262 L 81.944 171.954 L 81.944 171.954 Q 82.056 170.889 82.056 168.674 L 82.056 168.674 L 82.056 152.159 L 79.788 151.878 L 79.788 151.878 Q 79.676 151.458 79.788 150.842 Z  M 87.292 161.846 L 87.292 161.846 L 85.052 161.846 L 85.052 171.982 L 85.052 171.982 Q 86.48 172.234 87.32 172.29 L 87.32 172.29 L 87.32 172.29 Q 90.708 172.29 91.996 171.016 L 91.996 171.016 L 91.996 171.016 Q 93.284 169.742 93.284 167.026 L 93.284 167.026 L 93.284 167.026 Q 93.284 164.842 91.702 163.344 L 91.702 163.344 L 91.702 163.344 Q 90.12 161.846 87.292 161.846 Z  M 87.488 151.794 L 87.488 151.794 L 87.488 151.794 Q 86.088 151.794 85.164 151.99 L 85.164 151.99 L 85.164 151.99 Q 85.052 153.054 85.052 155.49 L 85.052 155.49 L 85.052 160.446 L 87.236 160.446 L 87.236 160.446 Q 89.84 160.446 91.03 159.382 L 91.03 159.382 L 91.03 159.382 Q 92.22 158.318 92.22 156.218 L 92.22 156.218 L 92.22 156.218 Q 92.22 154.09 90.918 152.942 L 90.918 152.942 L 90.918 152.942 Q 89.616 151.794 87.488 151.794 Z  M 103.644 165.01 L 101.152 171.956 L 103.42 172.234 L 103.42 172.234 Q 103.532 172.667 103.42 173.296 L 103.42 173.296 L 103.42 173.296 Q 101.656 173.214 100.452 173.214 L 100.452 173.214 L 100.452 173.214 Q 99.78 173.214 97.428 173.269 L 97.428 173.269 L 97.428 173.269 Q 97.26 172.753 97.428 172.234 L 97.428 172.234 L 99.276 171.899 L 99.276 171.899 Q 99.724 171.228 100.396 169.41 L 100.396 169.41 L 107.62 150.114 L 108.6 150.114 L 116.72 171.955 L 118.988 172.234 L 118.988 172.234 Q 119.1 172.667 118.988 173.296 L 118.988 173.296 L 118.988 173.296 Q 117.224 173.214 115.04 173.214 L 115.04 173.214 L 115.04 173.214 Q 113.416 173.214 111.064 173.269 L 111.064 173.269 L 111.064 173.269 Q 110.896 172.753 111.064 172.234 L 111.064 172.234 L 113.388 171.9 L 110.924 165.01 L 103.644 165.01 Z  M 107.368 154.342 L 107.368 154.342 L 107.34 154.342 L 107.34 154.342 Q 107.004 155.658 106.248 157.786 L 106.248 157.786 L 104.148 163.61 L 110.42 163.61 L 108.376 157.786 L 108.376 157.786 Q 107.788 156.078 107.368 154.342 Z  M 137.328 169.07 L 137.328 169.07 L 137.328 169.07 Q 137.804 169.378 138.056 170.134 L 138.056 170.134 L 138.056 170.134 Q 134.164 173.774 130.16 173.774 L 130.16 173.774 L 130.16 173.774 Q 127.416 173.774 125.372 172.78 L 125.372 172.78 L 125.372 172.78 Q 123.328 171.786 121.984 170.148 L 121.984 170.148 L 121.984 170.148 Q 120.64 168.51 119.982 166.424 L 119.982 166.424 L 119.982 166.424 Q 119.324 164.338 119.324 162.154 L 119.324 162.154 L 119.324 162.154 Q 119.324 159.942 120.08 157.828 L 120.08 157.828 L 120.08 157.828 Q 120.836 155.714 122.292 154.048 L 122.292 154.048 L 122.292 154.048 Q 123.748 152.382 125.89 151.374 L 125.89 151.374 L 125.89 151.374 Q 128.032 150.366 130.776 150.366 L 130.776 150.366 L 130.776 150.366 Q 134.388 150.366 137.496 152.046 L 137.496 152.046 L 137.496 157.422 L 137.496 157.422 Q 136.992 157.506 136.6 157.506 L 136.6 157.506 L 136.6 157.506 Q 136.18 157.506 135.9 157.422 L 135.9 157.422 L 135.004 152.746 L 135.004 152.746 Q 133.296 151.626 130.44 151.626 L 130.44 151.626 L 130.44 151.626 Q 128.676 151.626 127.262 152.424 L 127.262 152.424 L 127.262 152.424 Q 125.848 153.222 124.854 154.58 L 124.854 154.58 L 124.854 154.58 Q 123.86 155.938 123.328 157.772 L 123.328 157.772 L 123.328 157.772 Q 122.796 159.606 122.796 161.679 L 122.796 161.679 L 122.796 161.679 Q 122.796 163.89 123.314 165.766 L 123.314 165.766 L 123.314 165.766 Q 123.832 167.642 124.784 169.014 L 124.784 169.014 L 124.784 169.014 Q 125.736 170.386 127.094 171.156 L 127.094 171.156 L 127.094 171.156 Q 128.452 171.926 130.132 171.926 L 130.132 171.926 L 130.132 171.926 Q 132.148 171.926 134.024 171.142 L 134.024 171.142 L 134.024 171.142 Q 135.9 170.358 137.328 169.07 Z  M 154.212 154.706 L 149.396 160.53 L 155.864 169.078 L 155.864 169.078 Q 157.068 170.782 158.216 171.927 L 158.216 171.927 L 160.4 172.15 L 160.4 172.15 Q 160.512 172.64 160.428 173.212 L 160.428 173.212 L 160.428 173.212 Q 156.228 173.13 155.22 173.13 L 155.22 173.13 L 155.22 173.13 Q 153.148 173.13 151.888 173.24 L 151.888 173.24 L 151.888 173.24 Q 151.72 172.755 151.86 172.206 L 151.86 172.206 L 154.156 171.814 L 154.156 171.814 Q 153.904 171.282 152.168 168.846 L 152.168 168.846 L 147.464 162.378 L 145.868 162.378 L 145.868 171.954 L 148.136 172.234 L 148.136 172.234 Q 148.248 172.667 148.136 173.296 L 148.136 173.296 L 148.136 173.296 Q 146.372 173.214 144.3 173.214 L 144.3 173.214 L 144.3 173.214 Q 142.788 173.214 140.436 173.269 L 140.436 173.269 L 140.436 173.269 Q 140.268 172.753 140.436 172.234 L 140.436 172.234 L 142.76 171.899 L 142.76 171.899 Q 142.872 170.836 142.872 168.627 L 142.872 168.627 L 142.872 152.158 L 140.604 151.878 L 140.604 151.878 Q 140.492 151.458 140.604 150.842 L 140.604 150.842 L 140.604 150.842 Q 142.144 150.954 144.44 150.954 L 144.44 150.954 L 144.44 150.954 Q 146.484 150.954 148.304 150.87 L 148.304 150.87 L 148.304 150.87 Q 148.472 151.374 148.304 151.878 L 148.304 151.878 L 145.98 152.214 L 145.98 152.214 Q 145.868 153.278 145.868 155.49 L 145.868 155.49 L 145.868 160.978 L 147.352 160.978 L 154.436 152.158 L 152.168 151.878 L 152.168 151.878 Q 152.056 151.458 152.168 150.842 L 152.168 150.842 L 152.168 150.842 Q 153.708 150.954 155.388 150.954 L 155.388 150.954 L 155.388 150.954 Q 156.844 150.954 158.636 150.87 L 158.636 150.87 L 158.636 150.87 Q 158.804 151.374 158.636 151.878 L 158.636 151.878 L 156.76 152.214 L 156.76 152.214 Q 155.472 153.222 154.212 154.706 L 154.212 154.706 Z " fill="rgb(255,255,255)"/></g></g></g></g></svg>