<?xml version="1.0" encoding="UTF-8" standalone="no"?><!-- Generator: Gravit.io --><svg xmlns="http://www.w3.org/2000/svg" xmlns:xlink="http://www.w3.org/1999/xlink" style="isolation:isolate" viewBox="0 0 240 240" width="240pt" height="240pt"><defs><clipPath id="_clipPath_SjfpSZHUVSOW92uuBThI2VvaAbtuAGxE"><rect width="240" height="240"/></clipPath></defs><g clip-path="url(#_clipPath_SjfpSZHUVSOW92uuBThI2VvaAbtuAGxE)"><clipPath id="_clipPath_DUx9E2wbpFR8L4m0Bouo1T4a9qyV12Mq"><rect x="0" y="0" width="240" height="240" transform="matrix(-1,0,0,-1,240,240)" fill="rgb(255,255,255)"/></clipPath><g clip-path="url(#_clipPath_DUx9E2wbpFR8L4m0Bouo1T4a9qyV12Mq)"><g><g><path d=" M 150.914 111.839 L 150.914 111.839 C 149.366 113.387 146.854 113.387 145.306 111.839 L 117.239 83.769 C 115.691 82.221 115.691 79.708 117.239 78.161 L 117.239 78.161 C 118.786 76.613 121.299 76.613 122.847 78.161 L 150.914 106.231 C 152.461 107.779 152.461 110.292 150.914 111.839 Z " fill="rgb(255,255,255)"/><path d=" M 89.086 111.839 L 89.086 111.839 C 87.539 110.292 87.539 107.779 89.086 106.231 L 117.153 78.161 C 118.701 76.613 121.214 76.613 122.761 78.161 L 122.761 78.161 C 124.309 79.708 124.309 82.221 122.761 83.769 L 94.694 111.839 C 93.146 113.387 90.634 113.387 89.086 111.839 Z " fill="rgb(255,255,255)"/></g></g><g clip-path="url(#_clipPath_4BlnkUE4Kf9b74KbWiircITbowMk3Ez9)"><text transform="matrix(1,0,0,1,70.58,154.874)" style="font-family:'Ubuntu';font-weight:700;font-size:36px;font-style:normal;fill:#ffffff;stroke:none;">BACK</text></g><defs><clipPath id="_clipPath_4BlnkUE4Kf9b74KbWiircITbowMk3Ez9"><rect x="0" y="0" width="240" height="43" transform="matrix(1,0,0,1,0,120)"/></clipPath></defs></g></g></svg>