<?xml version="1.0" encoding="UTF-8"?><svg id="a" xmlns="http://www.w3.org/2000/svg" viewBox="0 0 64 64"><defs><style>.e{fill:#fff;}</style></defs><g id="b" transform="matrix(1.9656019,0,0,1.9656019,-2.8167172e-7,-51.10565)"><g><path class="e" d="M46.63,23.19h-2.88v10.94h2.88c3.02,0,5.47-2.45,5.47-5.47s-2.45-5.47-5.47-5.47Z"/><path class="e" d="M32,0C14.33,0,0,14.33,0,32s14.33,32,32,32,32-14.33,32-32S49.67,0,32,0Zm14.91,40.02h-3.16v3.32c0,2.81-2.28,5.09-5.09,5.09H14.61c-2.81,0-5.09-2.28-5.09-5.09V19.84c0-1.41,1.14-2.55,2.55-2.55H46.91c6.09,0,11.04,4.94,11.04,11.04v.65c0,6.09-4.94,11.04-11.04,11.04Z"/></g><g id="c" transform="translate(4.84,34.8)"><path id="d" class="e" d="M25.95,27.67c.79-2.3,2.65-3.45,5.59-3.45,4.41,0,6.05,5.49,3.74,9.08-1.54,2.39-4.65,5.42-9.33,9.08-4.68-3.66-7.79-6.69-9.33-9.08-2.31-3.59-.68-9.08,3.74-9.08,2.94,0,4.81,1.15,5.59,3.45Z"/></g></g></svg>