<?xml version="1.0" encoding="UTF-8" standalone="no"?><!-- Generator: Gravit.io --><svg xmlns="http://www.w3.org/2000/svg" xmlns:xlink="http://www.w3.org/1999/xlink" style="isolation:isolate" viewBox="0 0 240 240" width="240pt" height="240pt"><defs><clipPath id="_clipPath_jkpClpHGiq9LuKhJOTKe4dv5izxd47k6"><rect width="240" height="240"/></clipPath></defs><g clip-path="url(#_clipPath_jkpClpHGiq9LuKhJOTKe4dv5izxd47k6)"><circle vector-effect="non-scaling-stroke" cx="120" cy="120" r="120" fill="rgb(152,0,0)"/><path d="M 60.2 80 L 179.8 80 C 182.67 80 185 82.33 185 85.2 L 185 154.8 C 185 157.67 182.67 160 179.8 160 L 60.2 160 C 57.33 160 55 157.67 55 154.8 L 55 85.2 C 55 82.33 57.33 80 60.2 80 Z" style="stroke:none;fill:#FFFFFF;stroke-miterlimit:10;"/><path d="M 55.003 80.003 L 55.003 80.003 C 56.955 78.052 60.123 78.052 62.075 80.003 L 123.647 141.575 C 125.598 143.527 125.598 146.695 123.647 148.647 L 123.647 148.647 C 121.695 150.598 118.527 150.598 116.575 148.647 L 55.003 87.075 C 53.052 85.123 53.052 81.955 55.003 80.003 Z" style="stroke:none;fill:#980000;stroke-miterlimit:10;"/><path d="M 185.106 80.104 L 185.106 80.104 C 187.058 82.055 187.058 85.224 185.106 87.175 L 123.675 148.606 C 121.724 150.558 118.555 150.558 116.604 148.606 L 116.604 148.606 C 114.652 146.655 114.652 143.486 116.604 141.535 L 178.035 80.104 C 179.986 78.152 183.155 78.152 185.106 80.104 Z" style="stroke:none;fill:#980000;stroke-miterlimit:10;"/></g></svg>