<?xml version="1.0" encoding="UTF-8" standalone="no"?><!-- Generator: Gravit.io --><svg xmlns="http://www.w3.org/2000/svg" xmlns:xlink="http://www.w3.org/1999/xlink" style="isolation:isolate" viewBox="0 0 240 240" width="240pt" height="240pt"><defs><clipPath id="_clipPath_pDYbiOAe1uUcxNA67h5mT17XEn4ow2E6"><rect width="240" height="240"/></clipPath></defs><g clip-path="url(#_clipPath_pDYbiOAe1uUcxNA67h5mT17XEn4ow2E6)"><clipPath id="_clipPath_brgbDBB1Ee6gO3d7rVWrBWnR6wluaHpS"><rect x="0" y="0" width="240" height="240" transform="matrix(1,0,0,1,0,0)" fill="rgb(255,255,255)"/></clipPath><g clip-path="url(#_clipPath_brgbDBB1Ee6gO3d7rVWrBWnR6wluaHpS)"><g><clipPath id="_clipPath_slnlxIhdKAfUqZSF9OG8XCqT0LJjOBjy"><rect x="0" y="0" width="240" height="240" transform="matrix(1,0,0,1,0,0)" fill="rgb(255,255,255)"/></clipPath><g clip-path="url(#_clipPath_slnlxIhdKAfUqZSF9OG8XCqT0LJjOBjy)"><g><g><g><path d=" M 89.086 128.161 L 89.086 128.161 C 90.634 126.613 93.146 126.613 94.694 128.161 L 122.761 156.231 C 124.309 157.779 124.309 160.292 122.761 161.839 L 122.761 161.839 C 121.214 163.387 118.701 163.387 117.153 161.839 L 89.086 133.769 C 87.539 132.221 87.539 129.708 89.086 128.161 Z " fill="rgb(255,255,255)"/><path d=" M 150.914 128.161 L 150.914 128.161 C 152.461 129.708 152.461 132.221 150.914 133.769 L 122.847 161.839 C 121.299 163.387 118.786 163.387 117.239 161.839 L 117.239 161.839 C 115.691 160.292 115.691 157.779 117.239 156.231 L 145.306 128.161 C 146.854 126.613 149.366 126.613 150.914 128.161 Z " fill="rgb(255,255,255)"/></g></g></g></g><clipPath id="_clipPath_Co5Mr5ZIhOM57oeV5ONquB8cIAlrHr2o"><rect x="0" y="77" width="240" height="43" transform="matrix(1,0,0,1,0,0)" fill="rgb(255,255,255)"/></clipPath><g clip-path="url(#_clipPath_Co5Mr5ZIhOM57oeV5ONquB8cIAlrHr2o)"><g><path d=" M 38.288 86.638 L 38.288 86.638 L 38.288 86.638 Q 43.868 86.638 46.856 88.6 L 46.856 88.6 L 46.856 88.6 Q 49.844 90.562 49.844 95.026 L 49.844 95.026 L 49.844 95.026 Q 49.844 99.526 46.82 101.524 L 46.82 101.524 L 46.82 101.524 Q 43.796 103.522 38.18 103.522 L 38.18 103.522 L 36.416 103.522 L 36.416 111.874 L 30.8 111.874 L 30.8 87.286 L 30.8 87.286 Q 32.636 86.926 34.688 86.782 L 34.688 86.782 L 34.688 86.782 Q 36.74 86.638 38.288 86.638 Z  M 38.648 91.426 L 38.648 91.426 L 38.648 91.426 Q 38.036 91.426 37.442 91.462 L 37.442 91.462 L 37.442 91.462 Q 36.848 91.498 36.416 91.534 L 36.416 91.534 L 36.416 98.734 L 38.18 98.734 L 38.18 98.734 Q 41.096 98.734 42.572 97.942 L 42.572 97.942 L 42.572 97.942 Q 44.048 97.15 44.048 94.99 L 44.048 94.99 L 44.048 94.99 Q 44.048 93.946 43.67 93.262 L 43.67 93.262 L 43.67 93.262 Q 43.292 92.578 42.59 92.164 L 42.59 92.164 L 42.59 92.164 Q 41.888 91.75 40.88 91.588 L 40.88 91.588 L 40.88 91.588 Q 39.872 91.426 38.648 91.426 Z  M 61.292 86.638 L 61.292 86.638 L 61.292 86.638 Q 66.908 86.638 69.896 88.636 L 69.896 88.636 L 69.896 88.636 Q 72.884 90.634 72.884 94.846 L 72.884 94.846 L 72.884 94.846 Q 72.884 97.474 71.678 99.112 L 71.678 99.112 L 71.678 99.112 Q 70.472 100.75 68.204 101.686 L 68.204 101.686 L 68.204 101.686 Q 68.96 102.622 69.788 103.828 L 69.788 103.828 L 69.788 103.828 Q 70.616 105.034 71.426 106.348 L 71.426 106.348 L 71.426 106.348 Q 72.236 107.662 72.992 109.084 L 72.992 109.084 L 72.992 109.084 Q 73.748 110.506 74.396 111.874 L 74.396 111.874 L 68.076 111.874 L 68.076 111.874 Q 67.394 110.65 66.695 109.39 L 66.695 109.39 L 66.695 109.39 Q 65.995 108.13 65.26 106.942 L 65.26 106.942 L 65.26 106.942 Q 64.524 105.754 63.807 104.692 L 63.807 104.692 L 63.807 104.692 Q 63.089 103.63 62.372 102.766 L 62.372 102.766 L 59.6 102.766 L 59.6 111.874 L 53.984 111.874 L 53.984 87.286 L 53.984 87.286 Q 55.82 86.926 57.782 86.782 L 57.782 86.782 L 57.782 86.782 Q 59.744 86.638 61.292 86.638 Z  M 61.616 91.426 L 61.616 91.426 L 61.616 91.426 Q 61.004 91.426 60.518 91.462 L 60.518 91.462 L 60.518 91.462 Q 60.032 91.498 59.6 91.534 L 59.6 91.534 L 59.6 98.302 L 61.184 98.302 L 61.184 98.302 Q 64.352 98.302 65.72 97.51 L 65.72 97.51 L 65.72 97.51 Q 67.088 96.718 67.088 94.81 L 67.088 94.81 L 67.088 94.81 Q 67.088 92.974 65.702 92.2 L 65.702 92.2 L 65.702 92.2 Q 64.316 91.426 61.616 91.426 Z  M 82.064 99.382 L 82.064 99.382 L 82.064 99.382 Q 82.064 101.218 82.514 102.694 L 82.514 102.694 L 82.514 102.694 Q 82.964 104.17 83.81 105.232 L 83.81 105.232 L 83.81 105.232 Q 84.656 106.294 85.88 106.87 L 85.88 106.87 L 85.88 106.87 Q 87.104 107.446 88.688 107.446 L 88.688 107.446 L 88.688 107.446 Q 90.236 107.446 91.478 106.87 L 91.478 106.87 L 91.478 106.87 Q 92.72 106.294 93.566 105.232 L 93.566 105.232 L 93.566 105.232 Q 94.412 104.17 94.862 102.694 L 94.862 102.694 L 94.862 102.694 Q 95.312 101.218 95.312 99.382 L 95.312 99.382 L 95.312 99.382 Q 95.312 97.546 94.862 96.052 L 94.862 96.052 L 94.862 96.052 Q 94.412 94.558 93.566 93.496 L 93.566 93.496 L 93.566 93.496 Q 92.72 92.434 91.478 91.858 L 91.478 91.858 L 91.478 91.858 Q 90.236 91.282 88.688 91.282 L 88.688 91.282 L 88.688 91.282 Q 87.104 91.282 85.88 91.876 L 85.88 91.876 L 85.88 91.876 Q 84.656 92.47 83.81 93.532 L 83.81 93.532 L 83.81 93.532 Q 82.964 94.594 82.514 96.088 L 82.514 96.088 L 82.514 96.088 Q 82.064 97.582 82.064 99.382 Z  M 101.108 99.382 L 101.108 99.382 L 101.108 99.382 Q 101.108 102.586 100.154 105.016 L 100.154 105.016 L 100.154 105.016 Q 99.2 107.446 97.544 109.084 L 97.544 109.084 L 97.544 109.084 Q 95.888 110.722 93.602 111.55 L 93.602 111.55 L 93.602 111.55 Q 91.316 112.378 88.688 112.378 L 88.688 112.378 L 88.688 112.378 Q 86.132 112.378 83.864 111.55 L 83.864 111.55 L 83.864 111.55 Q 81.596 110.722 79.904 109.084 L 79.904 109.084 L 79.904 109.084 Q 78.212 107.446 77.24 105.016 L 77.24 105.016 L 77.24 105.016 Q 76.268 102.586 76.268 99.382 L 76.268 99.382 L 76.268 99.382 Q 76.268 96.178 77.276 93.748 L 77.276 93.748 L 77.276 93.748 Q 78.284 91.318 79.994 89.662 L 79.994 89.662 L 79.994 89.662 Q 81.704 88.006 83.954 87.178 L 83.954 87.178 L 83.954 87.178 Q 86.204 86.35 88.688 86.35 L 88.688 86.35 L 88.688 86.35 Q 91.244 86.35 93.512 87.178 L 93.512 87.178 L 93.512 87.178 Q 95.78 88.006 97.472 89.662 L 97.472 89.662 L 97.472 89.662 Q 99.164 91.318 100.136 93.748 L 100.136 93.748 L 100.136 93.748 Q 101.108 96.178 101.108 99.382 Z  M 118.604 86.926 L 118.604 103.486 L 118.604 103.486 Q 118.604 105.322 118.19 106.942 L 118.19 106.942 L 118.19 106.942 Q 117.776 108.562 116.75 109.768 L 116.75 109.768 L 116.75 109.768 Q 115.724 110.974 113.978 111.676 L 113.978 111.676 L 113.978 111.676 Q 112.232 112.378 109.568 112.378 L 109.568 112.378 L 109.568 112.378 Q 107.12 112.378 105.356 111.784 L 105.356 111.784 L 105.356 111.784 Q 103.592 111.19 102.44 110.398 L 102.44 110.398 L 104.312 106.042 L 104.312 106.042 Q 105.356 106.654 106.544 107.122 L 106.544 107.122 L 106.544 107.122 Q 107.732 107.59 109.136 107.59 L 109.136 107.59 L 109.136 107.59 Q 111.188 107.59 112.088 106.582 L 112.088 106.582 L 112.088 106.582 Q 112.988 105.574 112.988 103.198 L 112.988 103.198 L 112.988 86.926 L 118.604 86.926 L 118.604 86.926 Z  M 141.68 111.874 L 124.004 111.874 L 124.004 86.926 L 140.852 86.926 L 140.852 91.642 L 129.62 91.642 L 129.62 96.538 L 139.592 96.538 L 139.592 101.146 L 129.62 101.146 L 129.62 107.158 L 141.68 107.158 L 141.68 111.874 L 141.68 111.874 Z  M 157.196 112.378 L 157.196 112.378 L 157.196 112.378 Q 151.112 112.378 147.926 108.994 L 147.926 108.994 L 147.926 108.994 Q 144.74 105.61 144.74 99.382 L 144.74 99.382 L 144.74 99.382 Q 144.74 96.286 145.712 93.856 L 145.712 93.856 L 145.712 93.856 Q 146.684 91.426 148.376 89.752 L 148.376 89.752 L 148.376 89.752 Q 150.068 88.078 152.408 87.214 L 152.408 87.214 L 152.408 87.214 Q 154.748 86.35 157.484 86.35 L 157.484 86.35 L 157.484 86.35 Q 159.068 86.35 160.364 86.584 L 160.364 86.584 L 160.364 86.584 Q 161.66 86.818 162.632 87.124 L 162.632 87.124 L 162.632 87.124 Q 163.604 87.43 164.252 87.754 L 164.252 87.754 L 164.252 87.754 Q 164.9 88.078 165.188 88.258 L 165.188 88.258 L 163.568 92.794 L 163.568 92.794 Q 162.416 92.182 160.886 91.75 L 160.886 91.75 L 160.886 91.75 Q 159.356 91.318 157.412 91.318 L 157.412 91.318 L 157.412 91.318 Q 156.116 91.318 154.874 91.75 L 154.874 91.75 L 154.874 91.75 Q 153.632 92.182 152.678 93.136 L 152.678 93.136 L 152.678 93.136 Q 151.724 94.09 151.148 95.602 L 151.148 95.602 L 151.148 95.602 Q 150.572 97.114 150.572 99.274 L 150.572 99.274 L 150.572 99.274 Q 150.572 101.002 150.95 102.496 L 150.95 102.496 L 150.95 102.496 Q 151.328 103.99 152.174 105.07 L 152.174 105.07 L 152.174 105.07 Q 153.02 106.15 154.388 106.78 L 154.388 106.78 L 154.388 106.78 Q 155.756 107.41 157.7 107.41 L 157.7 107.41 L 157.7 107.41 Q 158.924 107.41 159.896 107.266 L 159.896 107.266 L 159.896 107.266 Q 160.868 107.122 161.624 106.924 L 161.624 106.924 L 161.624 106.924 Q 162.38 106.726 162.956 106.474 L 162.956 106.474 L 162.956 106.474 Q 163.532 106.222 164 106.006 L 164 106.006 L 165.548 110.506 L 165.548 110.506 Q 164.36 111.226 162.2 111.802 L 162.2 111.802 L 162.2 111.802 Q 160.04 112.378 157.196 112.378 Z  M 167.744 86.926 L 188.408 86.926 L 188.408 91.714 L 180.884 91.714 L 180.884 111.874 L 175.268 111.874 L 175.268 91.714 L 167.744 91.714 L 167.744 86.926 L 167.744 86.926 Z  M 198.812 107.59 L 198.812 107.59 L 198.812 107.59 Q 200 107.59 200.774 107.392 L 200.774 107.392 L 200.774 107.392 Q 201.548 107.194 202.016 106.852 L 202.016 106.852 L 202.016 106.852 Q 202.484 106.51 202.664 106.042 L 202.664 106.042 L 202.664 106.042 Q 202.844 105.574 202.844 104.998 L 202.844 104.998 L 202.844 104.998 Q 202.844 103.774 201.692 102.964 L 201.692 102.964 L 201.692 102.964 Q 200.54 102.154 197.732 101.218 L 197.732 101.218 L 197.732 101.218 Q 196.508 100.786 195.284 100.228 L 195.284 100.228 L 195.284 100.228 Q 194.06 99.67 193.088 98.824 L 193.088 98.824 L 193.088 98.824 Q 192.116 97.978 191.504 96.772 L 191.504 96.772 L 191.504 96.772 Q 190.892 95.566 190.892 93.838 L 190.892 93.838 L 190.892 93.838 Q 190.892 92.11 191.54 90.724 L 191.54 90.724 L 191.54 90.724 Q 192.188 89.338 193.376 88.366 L 193.376 88.366 L 193.376 88.366 Q 194.564 87.394 196.256 86.872 L 196.256 86.872 L 196.256 86.872 Q 197.948 86.35 200.072 86.35 L 200.072 86.35 L 200.072 86.35 Q 202.592 86.35 204.428 86.89 L 204.428 86.89 L 204.428 86.89 Q 206.264 87.43 207.452 88.078 L 207.452 88.078 L 205.832 92.506 L 205.832 92.506 Q 204.788 91.966 203.51 91.552 L 203.51 91.552 L 203.51 91.552 Q 202.232 91.138 200.432 91.138 L 200.432 91.138 L 200.432 91.138 Q 198.416 91.138 197.534 91.696 L 197.534 91.696 L 197.534 91.696 Q 196.652 92.254 196.652 93.406 L 196.652 93.406 L 196.652 93.406 Q 196.652 94.09 196.976 94.558 L 196.976 94.558 L 196.976 94.558 Q 197.3 95.026 197.894 95.404 L 197.894 95.404 L 197.894 95.404 Q 198.488 95.782 199.262 96.088 L 199.262 96.088 L 199.262 96.088 Q 200.036 96.394 200.972 96.718 L 200.972 96.718 L 200.972 96.718 Q 202.916 97.438 204.356 98.14 L 204.356 98.14 L 204.356 98.14 Q 205.796 98.842 206.75 99.778 L 206.75 99.778 L 206.75 99.778 Q 207.704 100.714 208.172 101.974 L 208.172 101.974 L 208.172 101.974 Q 208.64 103.234 208.64 105.034 L 208.64 105.034 L 208.64 105.034 Q 208.64 108.526 206.192 110.452 L 206.192 110.452 L 206.192 110.452 Q 203.744 112.378 198.812 112.378 L 198.812 112.378 L 198.812 112.378 Q 197.156 112.378 195.824 112.18 L 195.824 112.18 L 195.824 112.18 Q 194.492 111.982 193.466 111.694 L 193.466 111.694 L 193.466 111.694 Q 192.44 111.406 191.702 111.082 L 191.702 111.082 L 191.702 111.082 Q 190.964 110.758 190.46 110.47 L 190.46 110.47 L 192.044 106.006 L 192.044 106.006 Q 193.16 106.618 194.798 107.104 L 194.798 107.104 L 194.798 107.104 Q 196.436 107.59 198.812 107.59 Z " fill-rule="evenodd" fill="rgb(255,255,255)"/></g></g></g></g></g></svg>