<?xml version="1.0" encoding="UTF-8" standalone="no"?><!-- Generator: Gravit.io --><svg xmlns="http://www.w3.org/2000/svg" xmlns:xlink="http://www.w3.org/1999/xlink" style="isolation:isolate" viewBox="0 0 120 120" width="120pt" height="120pt"><defs><clipPath id="_clipPath_2aSp0w3A97kmXCb4dhebK7XErgA5DWu8"><rect width="120" height="120"/></clipPath></defs><g clip-path="url(#_clipPath_2aSp0w3A97kmXCb4dhebK7XErgA5DWu8)"><rect width="120" height="120" style="fill:rgb(0,0,0)" fill-opacity="0"/><clipPath id="_clipPath_wifNmJCTRinBmt4GgCvsx6NgNn3l4U1b"><rect x="0" y="0" width="120" height="120" transform="matrix(1,0,0,1,0,0)" fill="rgb(255,255,255)"/></clipPath><g clip-path="url(#_clipPath_wifNmJCTRinBmt4GgCvsx6NgNn3l4U1b)"><g><clipPath id="_clipPath_dM0dhIzye4HHnZ6jq5Yddu6G8tGgiMti"><rect x="0" y="0" width="120" height="120" transform="matrix(1,0,0,1,0,0)" fill="rgb(255,255,255)"/></clipPath><g clip-path="url(#_clipPath_dM0dhIzye4HHnZ6jq5Yddu6G8tGgiMti)"><g><g><clipPath id="_clipPath_4GqADg0vxYXCvaEGyZjEqmnTw0tfwwOC"><rect x="0" y="0" width="120" height="120" transform="matrix(1,0,0,1,0,0)" fill="rgb(255,255,255)"/></clipPath><g clip-path="url(#_clipPath_4GqADg0vxYXCvaEGyZjEqmnTw0tfwwOC)"><g><g><g><clipPath id="_clipPath_1l4FQx3bQCvZpAUFV1mIOI2X5gsIY3nP"><rect x="0" y="0" width="120" height="120" transform="matrix(1,0,0,1,0,0)" fill="rgb(255,255,255)"/></clipPath><g clip-path="url(#_clipPath_1l4FQx3bQCvZpAUFV1mIOI2X5gsIY3nP)"><g><g><g><g><g><path d=" M 44.543 64.081 L 44.543 64.081 C 45.317 63.307 46.573 63.307 47.347 64.081 L 61.381 78.116 C 62.155 78.89 62.155 80.146 61.381 80.92 L 61.381 80.92 C 60.607 81.694 59.351 81.694 58.577 80.92 L 44.543 66.885 C 43.77 66.111 43.77 64.854 44.543 64.081 Z " fill="rgb(255,255,255)"/><path d=" M 75.457 64.081 L 75.457 64.081 C 76.231 64.854 76.231 66.111 75.457 66.885 L 61.424 80.92 C 60.65 81.694 59.393 81.694 58.62 80.92 L 58.62 80.92 C 57.846 80.146 57.846 78.89 58.62 78.116 L 72.653 64.081 C 73.427 63.307 74.683 63.307 75.457 64.081 Z " fill="rgb(255,255,255)"/></g></g></g></g></g></g><clipPath id="_clipPath_2SbFo08yJuqN2nByP4OwOHgBPGhwBASq"><rect x="0" y="38.5" width="120" height="21.5" transform="matrix(1,0,0,1,0,0)" fill="rgb(255,255,255)"/></clipPath><g clip-path="url(#_clipPath_2SbFo08yJuqN2nByP4OwOHgBPGhwBASq)"><g><g><g><path d=" M 19.144 43.319 L 19.144 43.319 L 19.144 43.319 Q 21.934 43.319 23.428 44.3 L 23.428 44.3 L 23.428 44.3 Q 24.922 45.281 24.922 47.513 L 24.922 47.513 L 24.922 47.513 Q 24.922 49.763 23.41 50.762 L 23.41 50.762 L 23.41 50.762 Q 21.898 51.761 19.09 51.761 L 19.09 51.761 L 18.208 51.761 L 18.208 55.937 L 15.4 55.937 L 15.4 43.643 L 15.4 43.643 Q 16.318 43.463 17.344 43.391 L 17.344 43.391 L 17.344 43.391 Q 18.37 43.319 19.144 43.319 Z  M 19.324 45.713 L 19.324 45.713 L 19.324 45.713 Q 19.018 45.713 18.721 45.731 L 18.721 45.731 L 18.721 45.731 Q 18.424 45.749 18.208 45.767 L 18.208 45.767 L 18.208 49.367 L 19.09 49.367 L 19.09 49.367 Q 20.548 49.367 21.286 48.971 L 21.286 48.971 L 21.286 48.971 Q 22.024 48.575 22.024 47.495 L 22.024 47.495 L 22.024 47.495 Q 22.024 46.973 21.835 46.631 L 21.835 46.631 L 21.835 46.631 Q 21.646 46.289 21.295 46.082 L 21.295 46.082 L 21.295 46.082 Q 20.944 45.875 20.44 45.794 L 20.44 45.794 L 20.44 45.794 Q 19.936 45.713 19.324 45.713 Z  M 30.646 43.319 L 30.646 43.319 L 30.646 43.319 Q 33.454 43.319 34.948 44.318 L 34.948 44.318 L 34.948 44.318 Q 36.442 45.317 36.442 47.423 L 36.442 47.423 L 36.442 47.423 Q 36.442 48.737 35.839 49.556 L 35.839 49.556 L 35.839 49.556 Q 35.236 50.375 34.102 50.843 L 34.102 50.843 L 34.102 50.843 Q 34.48 51.311 34.894 51.914 L 34.894 51.914 L 34.894 51.914 Q 35.308 52.517 35.713 53.174 L 35.713 53.174 L 35.713 53.174 Q 36.118 53.831 36.496 54.542 L 36.496 54.542 L 36.496 54.542 Q 36.874 55.253 37.198 55.937 L 37.198 55.937 L 34.038 55.937 L 34.038 55.937 Q 33.697 55.325 33.348 54.695 L 33.348 54.695 L 33.348 54.695 Q 32.998 54.065 32.63 53.471 L 32.63 53.471 L 32.63 53.471 Q 32.262 52.877 31.904 52.346 L 31.904 52.346 L 31.904 52.346 Q 31.545 51.815 31.186 51.383 L 31.186 51.383 L 29.8 51.383 L 29.8 55.937 L 26.992 55.937 L 26.992 43.643 L 26.992 43.643 Q 27.91 43.463 28.891 43.391 L 28.891 43.391 L 28.891 43.391 Q 29.872 43.319 30.646 43.319 Z  M 30.808 45.713 L 30.808 45.713 L 30.808 45.713 Q 30.502 45.713 30.259 45.731 L 30.259 45.731 L 30.259 45.731 Q 30.016 45.749 29.8 45.767 L 29.8 45.767 L 29.8 49.151 L 30.592 49.151 L 30.592 49.151 Q 32.176 49.151 32.86 48.755 L 32.86 48.755 L 32.86 48.755 Q 33.544 48.359 33.544 47.405 L 33.544 47.405 L 33.544 47.405 Q 33.544 46.487 32.851 46.1 L 32.851 46.1 L 32.851 46.1 Q 32.158 45.713 30.808 45.713 Z  M 41.032 49.691 L 41.032 49.691 L 41.032 49.691 Q 41.032 50.609 41.257 51.347 L 41.257 51.347 L 41.257 51.347 Q 41.482 52.085 41.905 52.616 L 41.905 52.616 L 41.905 52.616 Q 42.328 53.147 42.94 53.435 L 42.94 53.435 L 42.94 53.435 Q 43.552 53.723 44.344 53.723 L 44.344 53.723 L 44.344 53.723 Q 45.118 53.723 45.739 53.435 L 45.739 53.435 L 45.739 53.435 Q 46.36 53.147 46.783 52.616 L 46.783 52.616 L 46.783 52.616 Q 47.206 52.085 47.431 51.347 L 47.431 51.347 L 47.431 51.347 Q 47.656 50.609 47.656 49.691 L 47.656 49.691 L 47.656 49.691 Q 47.656 48.773 47.431 48.026 L 47.431 48.026 L 47.431 48.026 Q 47.206 47.279 46.783 46.748 L 46.783 46.748 L 46.783 46.748 Q 46.36 46.217 45.739 45.929 L 45.739 45.929 L 45.739 45.929 Q 45.118 45.641 44.344 45.641 L 44.344 45.641 L 44.344 45.641 Q 43.552 45.641 42.94 45.938 L 42.94 45.938 L 42.94 45.938 Q 42.328 46.235 41.905 46.766 L 41.905 46.766 L 41.905 46.766 Q 41.482 47.297 41.257 48.044 L 41.257 48.044 L 41.257 48.044 Q 41.032 48.791 41.032 49.691 Z  M 50.554 49.691 L 50.554 49.691 L 50.554 49.691 Q 50.554 51.293 50.077 52.508 L 50.077 52.508 L 50.077 52.508 Q 49.6 53.723 48.772 54.542 L 48.772 54.542 L 48.772 54.542 Q 47.944 55.361 46.801 55.775 L 46.801 55.775 L 46.801 55.775 Q 45.658 56.189 44.344 56.189 L 44.344 56.189 L 44.344 56.189 Q 43.066 56.189 41.932 55.775 L 41.932 55.775 L 41.932 55.775 Q 40.798 55.361 39.952 54.542 L 39.952 54.542 L 39.952 54.542 Q 39.106 53.723 38.62 52.508 L 38.62 52.508 L 38.62 52.508 Q 38.134 51.293 38.134 49.691 L 38.134 49.691 L 38.134 49.691 Q 38.134 48.089 38.638 46.874 L 38.638 46.874 L 38.638 46.874 Q 39.142 45.659 39.997 44.831 L 39.997 44.831 L 39.997 44.831 Q 40.852 44.003 41.977 43.589 L 41.977 43.589 L 41.977 43.589 Q 43.102 43.175 44.344 43.175 L 44.344 43.175 L 44.344 43.175 Q 45.622 43.175 46.756 43.589 L 46.756 43.589 L 46.756 43.589 Q 47.89 44.003 48.736 44.831 L 48.736 44.831 L 48.736 44.831 Q 49.582 45.659 50.068 46.874 L 50.068 46.874 L 50.068 46.874 Q 50.554 48.089 50.554 49.691 Z  M 59.302 43.463 L 59.302 51.743 L 59.302 51.743 Q 59.302 52.661 59.095 53.471 L 59.095 53.471 L 59.095 53.471 Q 58.888 54.281 58.375 54.884 L 58.375 54.884 L 58.375 54.884 Q 57.862 55.487 56.989 55.838 L 56.989 55.838 L 56.989 55.838 Q 56.116 56.189 54.784 56.189 L 54.784 56.189 L 54.784 56.189 Q 53.56 56.189 52.678 55.892 L 52.678 55.892 L 52.678 55.892 Q 51.796 55.595 51.22 55.199 L 51.22 55.199 L 52.156 53.021 L 52.156 53.021 Q 52.678 53.327 53.272 53.561 L 53.272 53.561 L 53.272 53.561 Q 53.866 53.795 54.568 53.795 L 54.568 53.795 L 54.568 53.795 Q 55.594 53.795 56.044 53.291 L 56.044 53.291 L 56.044 53.291 Q 56.494 52.787 56.494 51.599 L 56.494 51.599 L 56.494 43.463 L 59.302 43.463 L 59.302 43.463 Z  M 70.84 55.937 L 62.002 55.937 L 62.002 43.463 L 70.426 43.463 L 70.426 45.821 L 64.81 45.821 L 64.81 48.269 L 69.796 48.269 L 69.796 50.573 L 64.81 50.573 L 64.81 53.579 L 70.84 53.579 L 70.84 55.937 L 70.84 55.937 Z  M 78.598 56.189 L 78.598 56.189 L 78.598 56.189 Q 75.556 56.189 73.963 54.497 L 73.963 54.497 L 73.963 54.497 Q 72.37 52.805 72.37 49.691 L 72.37 49.691 L 72.37 49.691 Q 72.37 48.143 72.856 46.928 L 72.856 46.928 L 72.856 46.928 Q 73.342 45.713 74.188 44.876 L 74.188 44.876 L 74.188 44.876 Q 75.034 44.039 76.204 43.607 L 76.204 43.607 L 76.204 43.607 Q 77.374 43.175 78.742 43.175 L 78.742 43.175 L 78.742 43.175 Q 79.534 43.175 80.182 43.292 L 80.182 43.292 L 80.182 43.292 Q 80.83 43.409 81.316 43.562 L 81.316 43.562 L 81.316 43.562 Q 81.802 43.715 82.126 43.877 L 82.126 43.877 L 82.126 43.877 Q 82.45 44.039 82.594 44.129 L 82.594 44.129 L 81.784 46.397 L 81.784 46.397 Q 81.208 46.091 80.443 45.875 L 80.443 45.875 L 80.443 45.875 Q 79.678 45.659 78.706 45.659 L 78.706 45.659 L 78.706 45.659 Q 78.058 45.659 77.437 45.875 L 77.437 45.875 L 77.437 45.875 Q 76.816 46.091 76.339 46.568 L 76.339 46.568 L 76.339 46.568 Q 75.862 47.045 75.574 47.801 L 75.574 47.801 L 75.574 47.801 Q 75.286 48.557 75.286 49.637 L 75.286 49.637 L 75.286 49.637 Q 75.286 50.501 75.475 51.248 L 75.475 51.248 L 75.475 51.248 Q 75.664 51.995 76.087 52.535 L 76.087 52.535 L 76.087 52.535 Q 76.51 53.075 77.194 53.39 L 77.194 53.39 L 77.194 53.39 Q 77.878 53.705 78.85 53.705 L 78.85 53.705 L 78.85 53.705 Q 79.462 53.705 79.948 53.633 L 79.948 53.633 L 79.948 53.633 Q 80.434 53.561 80.812 53.462 L 80.812 53.462 L 80.812 53.462 Q 81.19 53.363 81.478 53.237 L 81.478 53.237 L 81.478 53.237 Q 81.766 53.111 82 53.003 L 82 53.003 L 82.774 55.253 L 82.774 55.253 Q 82.18 55.613 81.1 55.901 L 81.1 55.901 L 81.1 55.901 Q 80.02 56.189 78.598 56.189 Z  M 83.872 43.463 L 94.204 43.463 L 94.204 45.857 L 90.442 45.857 L 90.442 55.937 L 87.634 55.937 L 87.634 45.857 L 83.872 45.857 L 83.872 43.463 L 83.872 43.463 Z  M 99.406 53.795 L 99.406 53.795 L 99.406 53.795 Q 100 53.795 100.387 53.696 L 100.387 53.696 L 100.387 53.696 Q 100.774 53.597 101.008 53.426 L 101.008 53.426 L 101.008 53.426 Q 101.242 53.255 101.332 53.021 L 101.332 53.021 L 101.332 53.021 Q 101.422 52.787 101.422 52.499 L 101.422 52.499 L 101.422 52.499 Q 101.422 51.887 100.846 51.482 L 100.846 51.482 L 100.846 51.482 Q 100.27 51.077 98.866 50.609 L 98.866 50.609 L 98.866 50.609 Q 98.254 50.393 97.642 50.114 L 97.642 50.114 L 97.642 50.114 Q 97.03 49.835 96.544 49.412 L 96.544 49.412 L 96.544 49.412 Q 96.058 48.989 95.752 48.386 L 95.752 48.386 L 95.752 48.386 Q 95.446 47.783 95.446 46.919 L 95.446 46.919 L 95.446 46.919 Q 95.446 46.055 95.77 45.362 L 95.77 45.362 L 95.77 45.362 Q 96.094 44.669 96.688 44.183 L 96.688 44.183 L 96.688 44.183 Q 97.282 43.697 98.128 43.436 L 98.128 43.436 L 98.128 43.436 Q 98.974 43.175 100.036 43.175 L 100.036 43.175 L 100.036 43.175 Q 101.296 43.175 102.214 43.445 L 102.214 43.445 L 102.214 43.445 Q 103.132 43.715 103.726 44.039 L 103.726 44.039 L 102.916 46.253 L 102.916 46.253 Q 102.394 45.983 101.755 45.776 L 101.755 45.776 L 101.755 45.776 Q 101.116 45.569 100.216 45.569 L 100.216 45.569 L 100.216 45.569 Q 99.208 45.569 98.767 45.848 L 98.767 45.848 L 98.767 45.848 Q 98.326 46.127 98.326 46.703 L 98.326 46.703 L 98.326 46.703 Q 98.326 47.045 98.488 47.279 L 98.488 47.279 L 98.488 47.279 Q 98.65 47.513 98.947 47.702 L 98.947 47.702 L 98.947 47.702 Q 99.244 47.891 99.631 48.044 L 99.631 48.044 L 99.631 48.044 Q 100.018 48.197 100.486 48.359 L 100.486 48.359 L 100.486 48.359 Q 101.458 48.719 102.178 49.07 L 102.178 49.07 L 102.178 49.07 Q 102.898 49.421 103.375 49.889 L 103.375 49.889 L 103.375 49.889 Q 103.852 50.357 104.086 50.987 L 104.086 50.987 L 104.086 50.987 Q 104.32 51.617 104.32 52.517 L 104.32 52.517 L 104.32 52.517 Q 104.32 54.263 103.096 55.226 L 103.096 55.226 L 103.096 55.226 Q 101.872 56.189 99.406 56.189 L 99.406 56.189 L 99.406 56.189 Q 98.578 56.189 97.912 56.09 L 97.912 56.09 L 97.912 56.09 Q 97.246 55.991 96.733 55.847 L 96.733 55.847 L 96.733 55.847 Q 96.22 55.703 95.851 55.541 L 95.851 55.541 L 95.851 55.541 Q 95.482 55.379 95.23 55.235 L 95.23 55.235 L 96.022 53.003 L 96.022 53.003 Q 96.58 53.309 97.399 53.552 L 97.399 53.552 L 97.399 53.552 Q 98.218 53.795 99.406 53.795 Z " fill-rule="evenodd" fill="rgb(255,255,255)"/></g></g></g></g></g></g></g></g></g></g></g></g></g></g></svg>