<?xml version="1.0" encoding="UTF-8" standalone="no"?><!-- Generator: Gravit.io --><svg xmlns="http://www.w3.org/2000/svg" xmlns:xlink="http://www.w3.org/1999/xlink" style="isolation:isolate" viewBox="0 0 240 240" width="240pt" height="240pt"><defs><clipPath id="_clipPath_BsVb76v3MOwUXvmvJEP5rCjVPtTLDU7V"><rect width="240" height="240"/></clipPath></defs><g clip-path="url(#_clipPath_BsVb76v3MOwUXvmvJEP5rCjVPtTLDU7V)"><g><path d="M 42.037 92.817 L 42.037 92.817 C 45.939 88.914 52.276 88.914 56.179 92.817 L 126.963 163.61 C 130.866 167.512 130.866 173.85 126.963 177.753 L 126.963 177.753 C 123.061 181.656 116.724 181.656 112.821 177.753 L 42.037 106.96 C 38.134 103.058 38.134 96.72 42.037 92.817 Z" style="stroke:none;fill:#FFFFFF;stroke-miterlimit:10;"/><path d="M 197.963 92.817 L 197.963 92.817 C 201.866 96.72 201.866 103.058 197.963 106.96 L 127.179 177.753 C 123.276 181.656 116.939 181.656 113.037 177.753 L 113.037 177.753 C 109.134 173.85 109.134 167.512 113.037 163.61 L 183.821 92.817 C 187.724 88.914 194.061 88.914 197.963 92.817 Z" style="stroke:none;fill:#FFFFFF;stroke-miterlimit:10;"/><path d=" M 48.486 71.442 L 48.486 71.442 L 48.486 77.806 L 48.486 77.806 Q 48.486 79.869 48.937 80.368 L 48.937 80.368 L 48.937 80.368 Q 49.549 81.077 50.79 81.077 L 50.79 81.077 L 51.628 81.077 L 51.628 81.673 L 42.266 81.673 L 42.266 81.077 L 43.088 81.077 L 43.088 81.077 Q 44.474 81.077 45.07 80.175 L 45.07 80.175 L 45.07 80.175 Q 45.392 79.675 45.392 77.806 L 45.392 77.806 L 45.392 63.691 L 45.392 63.691 Q 45.392 61.629 44.957 61.129 L 44.957 61.129 L 44.957 61.129 Q 44.329 60.42 43.088 60.42 L 43.088 60.42 L 42.266 60.42 L 42.266 59.824 L 50.275 59.824 L 50.275 59.824 Q 53.207 59.824 54.899 60.428 L 54.899 60.428 L 54.899 60.428 Q 56.591 61.032 57.751 62.466 L 57.751 62.466 L 57.751 62.466 Q 58.911 63.901 58.911 65.866 L 58.911 65.866 L 58.911 65.866 Q 58.911 68.541 57.147 70.217 L 57.147 70.217 L 57.147 70.217 Q 55.382 71.893 52.16 71.893 L 52.16 71.893 L 52.16 71.893 Q 51.37 71.893 50.452 71.78 L 50.452 71.78 L 50.452 71.78 Q 49.533 71.667 48.486 71.442 Z  M 48.486 61.435 L 48.486 70.523 L 48.486 70.523 Q 49.34 70.684 50.001 70.765 L 50.001 70.765 L 50.001 70.765 Q 50.661 70.845 51.129 70.845 L 51.129 70.845 L 51.129 70.845 Q 52.804 70.845 54.021 69.548 L 54.021 69.548 L 54.021 69.548 Q 55.237 68.251 55.237 66.189 L 55.237 66.189 L 55.237 66.189 Q 55.237 64.771 54.657 63.554 L 54.657 63.554 L 54.657 63.554 Q 54.077 62.338 53.014 61.733 L 53.014 61.733 L 53.014 61.733 Q 51.95 61.129 50.597 61.129 L 50.597 61.129 L 50.597 61.129 Q 49.775 61.129 48.486 61.435 L 48.486 61.435 Z  M 82.372 81.077 L 82.372 81.673 L 76.539 81.673 L 69.143 71.458 L 69.143 71.458 Q 68.321 71.49 67.806 71.49 L 67.806 71.49 L 67.806 71.49 Q 67.596 71.49 67.355 71.482 L 67.355 71.482 L 67.355 71.482 Q 67.113 71.474 66.855 71.458 L 66.855 71.458 L 66.855 77.806 L 66.855 77.806 Q 66.855 79.869 67.306 80.368 L 67.306 80.368 L 67.306 80.368 Q 67.919 81.077 69.143 81.077 L 69.143 81.077 L 69.997 81.077 L 69.997 81.673 L 60.635 81.673 L 60.635 81.077 L 61.457 81.077 L 61.457 81.077 Q 62.843 81.077 63.439 80.175 L 63.439 80.175 L 63.439 80.175 Q 63.777 79.675 63.777 77.806 L 63.777 77.806 L 63.777 63.691 L 63.777 63.691 Q 63.777 61.629 63.326 61.129 L 63.326 61.129 L 63.326 61.129 Q 62.698 60.42 61.457 60.42 L 61.457 60.42 L 60.635 60.42 L 60.635 59.824 L 68.595 59.824 L 68.595 59.824 Q 72.076 59.824 73.727 60.331 L 73.727 60.331 L 73.727 60.331 Q 75.379 60.839 76.531 62.201 L 76.531 62.201 L 76.531 62.201 Q 77.683 63.562 77.683 65.447 L 77.683 65.447 L 77.683 65.447 Q 77.683 67.462 76.37 68.944 L 76.37 68.944 L 76.37 68.944 Q 75.057 70.426 72.301 71.039 L 72.301 71.039 L 76.813 77.307 L 76.813 77.307 Q 78.36 79.466 79.472 80.175 L 79.472 80.175 L 79.472 80.175 Q 80.584 80.884 82.372 81.077 L 82.372 81.077 Z  M 66.855 61.355 L 66.855 70.443 L 66.855 70.443 Q 67.161 70.443 67.387 70.451 L 67.387 70.451 L 67.387 70.451 Q 67.612 70.459 67.757 70.459 L 67.757 70.459 L 67.757 70.459 Q 70.883 70.459 72.471 69.105 L 72.471 69.105 L 72.471 69.105 Q 74.058 67.752 74.058 65.657 L 74.058 65.657 L 74.058 65.657 Q 74.058 63.61 72.777 62.329 L 72.777 62.329 L 72.777 62.329 Q 71.496 61.048 69.385 61.048 L 69.385 61.048 L 69.385 61.048 Q 68.45 61.048 66.855 61.355 L 66.855 61.355 Z  M 94.151 59.324 L 94.151 59.324 L 94.151 59.324 Q 98.405 59.324 101.523 62.555 L 101.523 62.555 L 101.523 62.555 Q 104.641 65.786 104.641 70.62 L 104.641 70.62 L 104.641 70.62 Q 104.641 75.599 101.499 78.886 L 101.499 78.886 L 101.499 78.886 Q 98.357 82.173 93.893 82.173 L 93.893 82.173 L 93.893 82.173 Q 89.381 82.173 86.312 78.966 L 86.312 78.966 L 86.312 78.966 Q 83.242 75.76 83.242 70.668 L 83.242 70.668 L 83.242 70.668 Q 83.242 65.464 86.787 62.176 L 86.787 62.176 L 86.787 62.176 Q 89.865 59.324 94.151 59.324 Z  M 93.845 60.501 L 93.845 60.501 L 93.845 60.501 Q 90.912 60.501 89.14 62.676 L 89.14 62.676 L 89.14 62.676 Q 86.932 65.383 86.932 70.604 L 86.932 70.604 L 86.932 70.604 Q 86.932 75.953 89.22 78.838 L 89.22 78.838 L 89.22 78.838 Q 90.977 81.029 93.861 81.029 L 93.861 81.029 L 93.861 81.029 Q 96.939 81.029 98.945 78.628 L 98.945 78.628 L 98.945 78.628 Q 100.951 76.227 100.951 71.055 L 100.951 71.055 L 100.951 71.055 Q 100.951 65.447 98.743 62.692 L 98.743 62.692 L 98.743 62.692 Q 96.971 60.501 93.845 60.501 Z  M 109.99 60.42 L 109.201 60.42 L 109.201 59.824 L 118.563 59.824 L 118.563 60.42 L 117.773 60.42 L 117.773 60.42 Q 116.436 60.42 115.823 61.21 L 115.823 61.21 L 115.823 61.21 Q 115.437 61.725 115.437 63.691 L 115.437 63.691 L 115.437 74.374 L 115.437 74.374 Q 115.437 76.839 114.897 78.37 L 114.897 78.37 L 114.897 78.37 Q 114.357 79.901 113.036 81.037 L 113.036 81.037 L 113.036 81.037 Q 111.714 82.173 109.845 82.173 L 109.845 82.173 L 109.845 82.173 Q 108.331 82.173 107.461 81.424 L 107.461 81.424 L 107.461 81.424 Q 106.59 80.674 106.59 79.708 L 106.59 79.708 L 106.59 79.708 Q 106.59 78.918 106.993 78.515 L 106.993 78.515 L 106.993 78.515 Q 107.525 78.016 108.234 78.016 L 108.234 78.016 L 108.234 78.016 Q 108.75 78.016 109.161 78.354 L 109.161 78.354 L 109.161 78.354 Q 109.571 78.693 110.2 80.159 L 110.2 80.159 L 110.2 80.159 Q 110.57 81.029 111.151 81.029 L 111.151 81.029 L 111.151 81.029 Q 111.586 81.029 111.964 80.497 L 111.964 80.497 L 111.964 80.497 Q 112.343 79.965 112.343 78.612 L 112.343 78.612 L 112.343 63.691 L 112.343 63.691 Q 112.343 62.031 112.133 61.5 L 112.133 61.5 L 112.133 61.5 Q 111.972 61.097 111.457 60.807 L 111.457 60.807 L 111.457 60.807 Q 110.764 60.42 109.99 60.42 L 109.99 60.42 Z  M 131.647 61.016 L 125.652 61.016 L 125.652 69.653 L 130.454 69.653 L 130.454 69.653 Q 132.323 69.653 132.952 69.089 L 132.952 69.089 L 132.952 69.089 Q 133.79 68.348 133.886 66.479 L 133.886 66.479 L 134.483 66.479 L 134.483 74.084 L 133.886 74.084 L 133.886 74.084 Q 133.661 72.489 133.435 72.038 L 133.435 72.038 L 133.435 72.038 Q 133.145 71.474 132.484 71.152 L 132.484 71.152 L 132.484 71.152 Q 131.824 70.829 130.454 70.829 L 130.454 70.829 L 125.652 70.829 L 125.652 78.032 L 125.652 78.032 Q 125.652 79.482 125.781 79.796 L 125.781 79.796 L 125.781 79.796 Q 125.91 80.11 126.233 80.296 L 126.233 80.296 L 126.233 80.296 Q 126.555 80.481 127.457 80.481 L 127.457 80.481 L 131.163 80.481 L 131.163 80.481 Q 133.016 80.481 133.854 80.223 L 133.854 80.223 L 133.854 80.223 Q 134.692 79.965 135.465 79.208 L 135.465 79.208 L 135.465 79.208 Q 136.464 78.209 137.512 76.195 L 137.512 76.195 L 138.156 76.195 L 136.271 81.673 L 119.433 81.673 L 119.433 81.077 L 120.206 81.077 L 120.206 81.077 Q 120.98 81.077 121.672 80.707 L 121.672 80.707 L 121.672 80.707 Q 122.188 80.449 122.373 79.933 L 122.373 79.933 L 122.373 79.933 Q 122.559 79.418 122.559 77.822 L 122.559 77.822 L 122.559 63.627 L 122.559 63.627 Q 122.559 61.548 122.14 61.065 L 122.14 61.065 L 122.14 61.065 Q 121.56 60.42 120.206 60.42 L 120.206 60.42 L 119.433 60.42 L 119.433 59.824 L 136.271 59.824 L 136.513 64.61 L 135.884 64.61 L 135.884 64.61 Q 135.546 62.885 135.135 62.241 L 135.135 62.241 L 135.135 62.241 Q 134.724 61.596 133.919 61.258 L 133.919 61.258 L 133.919 61.258 Q 133.274 61.016 131.647 61.016 L 131.647 61.016 Z  M 158.217 59.324 L 158.781 59.324 L 159.281 66.753 L 158.781 66.753 L 158.781 66.753 Q 157.782 63.417 155.929 61.951 L 155.929 61.951 L 155.929 61.951 Q 154.076 60.485 151.482 60.485 L 151.482 60.485 L 151.482 60.485 Q 149.307 60.485 147.55 61.588 L 147.55 61.588 L 147.55 61.588 Q 145.794 62.692 144.787 65.109 L 144.787 65.109 L 144.787 65.109 Q 143.78 67.526 143.78 71.119 L 143.78 71.119 L 143.78 71.119 Q 143.78 74.084 144.731 76.259 L 144.731 76.259 L 144.731 76.259 Q 145.681 78.435 147.591 79.595 L 147.591 79.595 L 147.591 79.595 Q 149.5 80.755 151.949 80.755 L 151.949 80.755 L 151.949 80.755 Q 154.076 80.755 155.704 79.845 L 155.704 79.845 L 155.704 79.845 Q 157.331 78.934 159.281 76.227 L 159.281 76.227 L 159.78 76.549 L 159.78 76.549 Q 158.137 79.466 155.945 80.819 L 155.945 80.819 L 155.945 80.819 Q 153.754 82.173 150.741 82.173 L 150.741 82.173 L 150.741 82.173 Q 145.311 82.173 142.33 78.145 L 142.33 78.145 L 142.33 78.145 Q 140.106 75.148 140.106 71.087 L 140.106 71.087 L 140.106 71.087 Q 140.106 67.816 141.572 65.077 L 141.572 65.077 L 141.572 65.077 Q 143.039 62.338 145.609 60.831 L 145.609 60.831 L 145.609 60.831 Q 148.179 59.324 151.224 59.324 L 151.224 59.324 L 151.224 59.324 Q 153.593 59.324 155.897 60.485 L 155.897 60.485 L 155.897 60.485 Q 156.574 60.839 156.864 60.839 L 156.864 60.839 L 156.864 60.839 Q 157.299 60.839 157.621 60.533 L 157.621 60.533 L 157.621 60.533 Q 158.04 60.098 158.217 59.324 L 158.217 59.324 Z  M 162.181 59.824 L 180.019 59.824 L 180.26 64.948 L 179.648 64.948 L 179.648 64.948 Q 179.471 63.594 179.165 63.014 L 179.165 63.014 L 179.165 63.014 Q 178.665 62.08 177.835 61.637 L 177.835 61.637 L 177.835 61.637 Q 177.005 61.193 175.652 61.193 L 175.652 61.193 L 172.574 61.193 L 172.574 77.887 L 172.574 77.887 Q 172.574 79.901 173.009 80.401 L 173.009 80.401 L 173.009 80.401 Q 173.622 81.077 174.895 81.077 L 174.895 81.077 L 175.652 81.077 L 175.652 81.673 L 166.387 81.673 L 166.387 81.077 L 167.16 81.077 L 167.16 81.077 Q 168.546 81.077 169.126 80.239 L 169.126 80.239 L 169.126 80.239 Q 169.481 79.724 169.481 77.887 L 169.481 77.887 L 169.481 61.193 L 166.854 61.193 L 166.854 61.193 Q 165.323 61.193 164.679 61.419 L 164.679 61.419 L 164.679 61.419 Q 163.841 61.725 163.245 62.595 L 163.245 62.595 L 163.245 62.595 Q 162.649 63.465 162.536 64.948 L 162.536 64.948 L 161.923 64.948 L 162.181 59.824 Z  M 195.616 59.324 L 196.213 59.324 L 196.213 66.881 L 195.616 66.881 L 195.616 66.881 Q 195.326 64.706 194.577 63.417 L 194.577 63.417 L 194.577 63.417 Q 193.828 62.128 192.442 61.371 L 192.442 61.371 L 192.442 61.371 Q 191.056 60.613 189.574 60.613 L 189.574 60.613 L 189.574 60.613 Q 187.898 60.613 186.802 61.637 L 186.802 61.637 L 186.802 61.637 Q 185.707 62.66 185.707 63.965 L 185.707 63.965 L 185.707 63.965 Q 185.707 64.964 186.4 65.786 L 186.4 65.786 L 186.4 65.786 Q 187.399 66.994 191.153 69.008 L 191.153 69.008 L 191.153 69.008 Q 194.214 70.652 195.334 71.53 L 195.334 71.53 L 195.334 71.53 Q 196.454 72.408 197.058 73.601 L 197.058 73.601 L 197.058 73.601 Q 197.663 74.793 197.663 76.098 L 197.663 76.098 L 197.663 76.098 Q 197.663 78.58 195.737 80.376 L 195.737 80.376 L 195.737 80.376 Q 193.812 82.173 190.782 82.173 L 190.782 82.173 L 190.782 82.173 Q 189.832 82.173 188.994 82.028 L 188.994 82.028 L 188.994 82.028 Q 188.494 81.947 186.923 81.44 L 186.923 81.44 L 186.923 81.44 Q 185.352 80.932 184.933 80.932 L 184.933 80.932 L 184.933 80.932 Q 184.53 80.932 184.297 81.174 L 184.297 81.174 L 184.297 81.174 Q 184.063 81.416 183.95 82.173 L 183.95 82.173 L 183.354 82.173 L 183.354 74.68 L 183.95 74.68 L 183.95 74.68 Q 184.369 77.033 185.078 78.201 L 185.078 78.201 L 185.078 78.201 Q 185.787 79.369 187.245 80.143 L 187.245 80.143 L 187.245 80.143 Q 188.704 80.916 190.444 80.916 L 190.444 80.916 L 190.444 80.916 Q 192.458 80.916 193.626 79.853 L 193.626 79.853 L 193.626 79.853 Q 194.795 78.789 194.795 77.339 L 194.795 77.339 L 194.795 77.339 Q 194.795 76.533 194.351 75.712 L 194.351 75.712 L 194.351 75.712 Q 193.908 74.89 192.974 74.181 L 192.974 74.181 L 192.974 74.181 Q 192.345 73.697 189.542 72.126 L 189.542 72.126 L 189.542 72.126 Q 186.738 70.555 185.554 69.621 L 185.554 69.621 L 185.554 69.621 Q 184.369 68.686 183.757 67.558 L 183.757 67.558 L 183.757 67.558 Q 183.145 66.43 183.145 65.077 L 183.145 65.077 L 183.145 65.077 Q 183.145 62.724 184.949 61.024 L 184.949 61.024 L 184.949 61.024 Q 186.754 59.324 189.542 59.324 L 189.542 59.324 L 189.542 59.324 Q 191.282 59.324 193.232 60.178 L 193.232 60.178 L 193.232 60.178 Q 194.134 60.581 194.505 60.581 L 194.505 60.581 L 194.505 60.581 Q 194.923 60.581 195.189 60.331 L 195.189 60.331 L 195.189 60.331 Q 195.455 60.082 195.616 59.324 L 195.616 59.324 Z " fill="rgb(255,255,255)"/></g></g></svg>