<?xml version="1.0" encoding="UTF-8" standalone="no"?><!-- Generator: Gravit.io --><svg xmlns="http://www.w3.org/2000/svg" xmlns:xlink="http://www.w3.org/1999/xlink" style="isolation:isolate" viewBox="0 0 240 240" width="240pt" height="240pt"><defs><clipPath id="_clipPath_0LD5SlYvrMcEle4sbHSN680779L54FNQ"><rect width="240" height="240"/></clipPath></defs><g clip-path="url(#_clipPath_0LD5SlYvrMcEle4sbHSN680779L54FNQ)"><clipPath id="_clipPath_s3gOieYvW55aFFoh3GbqQzsNj8Sdhpj0"><rect x="0" y="0" width="240" height="240" transform="matrix(1,0,0,1,0,0)" fill="rgb(255,255,255)"/></clipPath><g clip-path="url(#_clipPath_s3gOieYvW55aFFoh3GbqQzsNj8Sdhpj0)"><g><g><path d=" M 89.086 128.161 L 89.086 128.161 C 90.634 126.613 93.146 126.613 94.694 128.161 L 122.761 156.231 C 124.309 157.779 124.309 160.292 122.761 161.839 L 122.761 161.839 C 121.214 163.387 118.701 163.387 117.153 161.839 L 89.086 133.769 C 87.539 132.221 87.539 129.708 89.086 128.161 Z " fill="rgb(255,255,255)"/><path d=" M 150.914 128.161 L 150.914 128.161 C 152.461 129.708 152.461 132.221 150.914 133.769 L 122.847 161.839 C 121.299 163.387 118.786 163.387 117.239 161.839 L 117.239 161.839 C 115.691 160.292 115.691 157.779 117.239 156.231 L 145.306 128.161 C 146.854 126.613 149.366 126.613 150.914 128.161 Z " fill="rgb(255,255,255)"/></g></g></g><g clip-path="url(#_clipPath_j5V5wSd6pxePMgancL93TyQay4nkR5YR)"><text transform="matrix(1,0,0,1,27.92,111.874)" style="font-family:'Ubuntu';font-weight:700;font-size:36px;font-style:normal;fill:#ffffff;stroke:none;">PROJECTS</text></g><defs><clipPath id="_clipPath_j5V5wSd6pxePMgancL93TyQay4nkR5YR"><rect x="0" y="0" width="240" height="43" transform="matrix(1,0,0,1,0,77)"/></clipPath></defs></g></svg>