<?xml version="1.0" encoding="UTF-8" standalone="no"?><!-- Generator: Gravit.io --><svg xmlns="http://www.w3.org/2000/svg" xmlns:xlink="http://www.w3.org/1999/xlink" style="isolation:isolate" viewBox="0 0 50 20" width="50pt" height="20pt"><defs><clipPath id="_clipPath_lu7XDZyXp4P0pLNpQZEoQytj6jCoaoVf"><rect width="50" height="20"/></clipPath></defs><g clip-path="url(#_clipPath_lu7XDZyXp4P0pLNpQZEoQytj6jCoaoVf)"><path d=" M 3.861 3.057 L 5.854 3.057 L 5.854 3.057 Q 6.358 4.575 6.851 6.123 L 6.851 6.123 L 6.851 6.123 Q 7.344 7.672 7.816 9.372 L 7.816 9.372 L 7.816 9.372 Q 8.288 11.073 8.76 12.976 L 8.76 12.976 L 8.76 12.976 Q 9.232 14.879 9.715 17.085 L 9.715 17.085 L 7.826 17.085 L 7.826 17.085 Q 7.669 16.174 7.491 15.283 L 7.491 15.283 L 7.491 15.283 Q 7.312 14.393 7.123 13.502 L 7.123 13.502 L 2.549 13.502 L 2.549 13.502 Q 2.339 14.393 2.172 15.283 L 2.172 15.283 L 2.172 15.283 Q 2.004 16.174 1.825 17.085 L 1.825 17.085 L 0 17.085 L 0 17.085 Q 0.462 14.879 0.944 12.976 L 0.944 12.976 L 0.944 12.976 Q 1.427 11.073 1.899 9.372 L 1.899 9.372 L 1.899 9.372 Q 2.371 7.672 2.864 6.123 L 2.864 6.123 L 2.864 6.123 Q 3.357 4.575 3.861 3.057 L 3.861 3.057 Z  M 4.836 5.121 L 4.836 5.121 L 4.836 5.121 Q 4.312 6.802 3.829 8.502 L 3.829 8.502 L 3.829 8.502 Q 3.347 10.202 2.906 11.984 L 2.906 11.984 L 6.746 11.984 L 6.746 11.984 Q 6.326 10.202 5.843 8.502 L 5.843 8.502 L 5.843 8.502 Q 5.361 6.802 4.836 5.121 Z " fill="rgb(255,255,255)"/><path d=" M 20.814 20 L 20.814 6.174 L 20.814 6.174 Q 19.345 5.83 17.982 5.83 L 17.982 5.83 L 17.982 5.83 Q 16.89 5.83 16.009 6.073 L 16.009 6.073 L 16.009 6.073 Q 15.128 6.316 14.499 6.842 L 14.499 6.842 L 14.499 6.842 Q 13.869 7.368 13.523 8.198 L 13.523 8.198 L 13.523 8.198 Q 13.177 9.028 13.177 10.202 L 13.177 10.202 L 13.177 10.202 Q 13.177 11.66 13.754 12.561 L 13.754 12.561 L 13.754 12.561 Q 14.331 13.462 15.317 13.927 L 15.317 13.927 L 15.317 13.927 Q 15.065 14.332 14.677 15.03 L 14.677 15.03 L 14.677 15.03 Q 14.289 15.729 13.88 16.569 L 13.88 16.569 L 13.88 16.569 Q 13.47 17.409 13.082 18.3 L 13.082 18.3 L 13.082 18.3 Q 12.694 19.19 12.421 20 L 12.421 20 L 14.323 20 L 14.323 20 Q 14.553 19.393 14.898 18.623 L 14.898 18.623 L 14.898 18.623 Q 15.242 17.854 15.618 17.095 L 15.618 17.095 L 15.618 17.095 Q 15.994 16.336 16.369 15.638 L 16.369 15.638 L 16.369 15.638 Q 16.745 14.939 17.037 14.453 L 17.037 14.453 L 17.037 14.453 Q 17.373 14.494 17.73 14.514 L 17.73 14.514 L 17.73 14.514 Q 18.086 14.534 18.443 14.534 L 18.443 14.534 L 18.968 14.534 L 18.968 20 L 20.814 20 Z  M 18.968 7.49 L 18.968 13.036 L 18.17 13.036 L 18.17 13.036 Q 16.723 13.036 15.946 12.399 L 15.946 12.399 L 15.946 12.399 Q 15.17 11.761 15.17 10.202 L 15.17 10.202 L 15.17 10.202 Q 15.17 9.413 15.369 8.877 L 15.369 8.877 L 15.369 8.877 Q 15.569 8.34 15.936 8.026 L 15.936 8.026 L 15.936 8.026 Q 16.303 7.713 16.817 7.571 L 16.817 7.571 L 16.817 7.571 Q 17.331 7.429 17.961 7.429 L 17.961 7.429 L 17.961 7.429 Q 18.506 7.429 18.968 7.49 L 18.968 7.49 Z " fill="rgb(255,255,255)"/><path d=" M 24.843 1.599 L 24.843 6.113 L 26.144 6.113 L 26.144 6.113 Q 28.745 6.113 28.745 3.846 L 28.745 3.846 L 28.745 3.846 Q 28.745 3.138 28.525 2.682 L 28.525 2.682 L 28.525 2.682 Q 28.305 2.227 27.948 1.974 L 27.948 1.974 L 27.948 1.974 Q 27.591 1.721 27.119 1.619 L 27.119 1.619 L 27.119 1.619 Q 26.647 1.518 26.123 1.518 L 26.123 1.518 L 26.123 1.518 Q 25.808 1.518 25.483 1.538 L 25.483 1.538 L 25.483 1.538 Q 25.157 1.559 24.843 1.599 L 24.843 1.599 Z  M 26.353 7.571 L 24.843 7.571 L 24.843 12.632 L 24.843 12.632 Q 25.241 12.692 25.629 12.733 L 25.629 12.733 L 25.629 12.733 Q 26.018 12.773 26.395 12.773 L 26.395 12.773 L 26.395 12.773 Q 26.983 12.773 27.507 12.652 L 27.507 12.652 L 27.507 12.652 Q 28.032 12.53 28.42 12.247 L 28.42 12.247 L 28.42 12.247 Q 28.808 11.964 29.029 11.468 L 29.029 11.468 L 29.029 11.468 Q 29.249 10.972 29.249 10.243 L 29.249 10.243 L 29.249 10.243 Q 29.249 8.988 28.546 8.279 L 28.546 8.279 L 28.546 8.279 Q 27.843 7.571 26.353 7.571 L 26.353 7.571 Z  M 22.954 13.947 L 22.954 0.344 L 22.954 0.344 Q 23.689 0.182 24.454 0.091 L 24.454 0.091 L 24.454 0.091 Q 25.22 0 25.976 0 L 25.976 0 L 25.976 0 Q 26.92 0 27.77 0.172 L 27.77 0.172 L 27.77 0.172 Q 28.619 0.344 29.27 0.759 L 29.27 0.759 L 29.27 0.759 Q 29.92 1.174 30.308 1.852 L 30.308 1.852 L 30.308 1.852 Q 30.697 2.53 30.697 3.543 L 30.697 3.543 L 30.697 3.543 Q 30.697 4.798 30.151 5.597 L 30.151 5.597 L 30.151 5.597 Q 29.606 6.397 28.745 6.781 L 28.745 6.781 L 28.745 6.781 Q 29.815 7.186 30.508 8.016 L 30.508 8.016 L 30.508 8.016 Q 31.2 8.846 31.2 10.304 L 31.2 10.304 L 31.2 10.304 Q 31.2 11.397 30.833 12.146 L 30.833 12.146 L 30.833 12.146 Q 30.466 12.895 29.794 13.37 L 29.794 13.37 L 29.794 13.37 Q 29.123 13.846 28.189 14.059 L 28.189 14.059 L 28.189 14.059 Q 27.256 14.271 26.144 14.271 L 26.144 14.271 L 26.144 14.271 Q 25.409 14.271 24.612 14.19 L 24.612 14.19 L 24.612 14.19 Q 23.815 14.109 22.954 13.947 L 22.954 13.947 Z " fill="rgb(255,255,255)"/><path d=" M 40.516 17.085 L 33.655 17.085 L 33.655 3.057 L 40.18 3.057 L 40.18 4.615 L 35.543 4.615 L 35.543 8.968 L 39.74 8.968 L 39.74 10.486 L 35.543 10.486 L 35.543 15.526 L 40.516 15.526 L 40.516 17.085 Z " fill="rgb(255,255,255)"/><path d=" M 50 17.085 L 43.139 17.085 L 43.139 3.057 L 49.664 3.057 L 49.664 4.615 L 45.027 4.615 L 45.027 8.968 L 49.224 8.968 L 49.224 10.486 L 45.027 10.486 L 45.027 15.526 L 50 15.526 L 50 17.085 Z " fill="rgb(255,255,255)"/></g></svg>