<?xml version="1.0" encoding="UTF-8" standalone="no"?><!-- Generator: Gravit.io --><svg xmlns="http://www.w3.org/2000/svg" xmlns:xlink="http://www.w3.org/1999/xlink" style="isolation:isolate" viewBox="0 0 192 60.2" width="192pt" height="60.2pt"><defs><clipPath id="_clipPath_G5v2WIPtQ42wcvkPIabCfjOEnaaYK4Vc"><rect width="192" height="60.2"/></clipPath></defs><g clip-path="url(#_clipPath_G5v2WIPtQ42wcvkPIabCfjOEnaaYK4Vc)"><g><path d=" M 36.364 54.658 L 26.405 54.658 L 24.217 43.869 L 11.769 43.869 L 9.657 54.658 L 0 54.658 L 0 54.658 Q 3.32 40.852 6.714 29.498 L 6.714 29.498 L 6.714 29.498 Q 10.109 18.143 13.278 7.959 L 13.278 7.959 L 23.387 7.959 L 23.387 7.959 Q 26.707 18.219 29.989 29.724 L 29.989 29.724 L 29.989 29.724 Q 33.27 41.229 36.364 54.658 L 36.364 54.658 Z  M 18.106 17.012 L 18.106 17.012 L 18.106 17.012 Q 17.352 19.652 16.711 22.029 L 16.711 22.029 L 16.711 22.029 Q 16.069 24.405 15.504 26.706 L 15.504 26.706 L 15.504 26.706 Q 14.938 29.007 14.447 31.346 L 14.447 31.346 L 14.447 31.346 Q 13.957 33.685 13.504 36.174 L 13.504 36.174 L 22.633 36.174 L 22.633 36.174 Q 22.18 33.685 21.728 31.346 L 21.728 31.346 L 21.728 31.346 Q 21.275 29.007 20.709 26.706 L 20.709 26.706 L 20.709 26.706 Q 20.143 24.405 19.502 22.029 L 19.502 22.029 L 19.502 22.029 Q 18.861 19.652 18.106 17.012 Z " fill="rgb(255,255,255)"/><path d=" M 154.506 54.658 L 124.555 54.658 L 124.555 7.959 L 152.846 7.959 L 152.846 15.654 L 133.835 15.654 L 133.835 26.14 L 150.357 26.14 L 150.357 33.836 L 133.835 33.836 L 133.835 46.963 L 154.506 46.963 L 154.506 54.658 Z " fill="rgb(255,255,255)"/><path d=" M 64.936 13 L 64.936 13 L 64.936 13 Q 60.937 13 57.693 13.905 L 57.693 13.905 L 57.693 13.905 Q 54.449 14.811 52.111 16.697 L 52.111 16.697 L 52.111 16.697 Q 49.772 18.583 48.527 21.487 L 48.527 21.487 L 48.527 21.487 Q 47.282 24.392 47.282 28.315 L 47.282 28.315 L 47.282 28.315 Q 47.282 32.389 48.942 35.708 L 48.942 35.708 L 48.942 35.708 Q 50.602 39.028 54.449 40.763 L 54.449 40.763 L 54.449 40.763 Q 53.167 42.725 51.733 45.101 L 51.733 45.101 L 51.733 45.101 Q 50.3 47.478 48.942 50.08 L 48.942 50.08 L 48.942 50.08 Q 47.584 52.683 46.339 55.286 L 46.339 55.286 L 46.339 55.286 Q 45.094 57.889 44.189 60.227 L 44.189 60.227 L 53.921 60.227 L 53.921 60.227 Q 55.656 55.701 57.957 51.514 L 57.957 51.514 L 57.957 51.514 Q 60.258 47.327 62.899 43.026 L 62.899 43.026 L 67.727 43.026 L 67.727 60.227 L 77.007 60.227 L 77.007 14.207 L 77.007 14.207 Q 75.649 13.905 74.027 13.641 L 74.027 13.641 L 74.027 13.641 Q 72.405 13.377 70.745 13.264 L 70.745 13.264 L 70.745 13.264 Q 69.085 13.151 67.576 13.075 L 67.576 13.075 L 67.576 13.075 Q 66.068 13 64.936 13 Z  M 56.713 28.24 L 56.713 28.24 L 56.713 28.24 Q 56.713 24.543 58.976 22.808 L 58.976 22.808 L 58.976 22.808 Q 61.239 21.072 64.936 21.072 L 64.936 21.072 L 64.936 21.072 Q 65.464 21.072 66.218 21.11 L 66.218 21.11 L 66.218 21.11 Q 66.973 21.148 67.727 21.299 L 67.727 21.299 L 67.727 35.331 L 65.69 35.331 L 65.69 35.331 Q 60.937 35.331 58.825 33.483 L 58.825 33.483 L 58.825 33.483 Q 56.713 31.634 56.713 28.24 Z " fill="rgb(255,255,255)"/><path d=" M 116.464 33.12 L 116.464 33.12 L 116.464 33.12 Q 116.464 37.344 115.03 40.174 L 115.03 40.174 L 115.03 40.174 Q 113.597 43.003 111.145 44.7 L 111.145 44.7 L 111.145 44.7 Q 108.693 46.398 105.336 47.114 L 105.336 47.114 L 105.336 47.114 Q 101.978 47.831 98.131 47.831 L 98.131 47.831 L 98.131 47.831 Q 95.038 47.831 91.718 47.492 L 91.718 47.492 L 91.718 47.492 Q 88.399 47.152 85.155 46.473 L 85.155 46.473 L 85.155 1.132 L 85.155 1.132 Q 87.795 0.679 90.964 0.339 L 90.964 0.339 L 90.964 0.339 Q 94.132 0 97.226 0 L 97.226 0 L 97.226 0 Q 102.507 0 105.826 1.094 L 105.826 1.094 L 105.826 1.094 Q 109.146 2.188 111.032 3.961 L 111.032 3.961 L 111.032 3.961 Q 112.918 5.734 113.597 7.922 L 113.597 7.922 L 113.597 7.922 Q 114.276 10.109 114.276 12.297 L 114.276 12.297 L 114.276 12.297 Q 114.276 15.617 112.654 18.182 L 112.654 18.182 L 112.654 18.182 Q 111.032 20.747 108.316 22.256 L 108.316 22.256 L 108.316 22.256 Q 113.069 23.991 114.766 26.933 L 114.766 26.933 L 114.766 26.933 Q 116.464 29.876 116.464 33.12 Z  M 99.413 26.782 L 94.434 26.782 L 94.434 39.457 L 94.434 39.457 Q 95.415 39.608 96.584 39.683 L 96.584 39.683 L 96.584 39.683 Q 97.754 39.759 98.885 39.759 L 98.885 39.759 L 98.885 39.759 Q 100.47 39.759 101.978 39.495 L 101.978 39.495 L 101.978 39.495 Q 103.487 39.23 104.657 38.514 L 104.657 38.514 L 104.657 38.514 Q 105.826 37.797 106.581 36.477 L 106.581 36.477 L 106.581 36.477 Q 107.335 35.157 107.335 33.12 L 107.335 33.12 L 107.335 33.12 Q 107.335 29.725 105.185 28.253 L 105.185 28.253 L 105.185 28.253 Q 103.035 26.782 99.413 26.782 L 99.413 26.782 Z  M 94.434 19.087 L 98.055 19.087 L 98.055 19.087 Q 101.601 19.087 103.412 17.541 L 103.412 17.541 L 103.412 17.541 Q 105.223 15.994 105.223 13.278 L 105.223 13.278 L 105.223 13.278 Q 105.223 11.618 104.694 10.6 L 104.694 10.6 L 104.694 10.6 Q 104.166 9.581 103.261 9.015 L 103.261 9.015 L 103.261 9.015 Q 102.356 8.45 101.149 8.261 L 101.149 8.261 L 101.149 8.261 Q 99.942 8.072 98.659 8.072 L 98.659 8.072 L 98.659 8.072 Q 97.603 8.072 96.471 8.148 L 96.471 8.148 L 96.471 8.148 Q 95.339 8.223 94.434 8.374 L 94.434 8.374 L 94.434 19.087 Z " fill="rgb(255,255,255)"/><path d=" M 192 54.699 L 162.049 54.699 L 162.049 8 L 190.34 8 L 190.34 15.695 L 171.329 15.695 L 171.329 26.182 L 187.851 26.182 L 187.851 33.877 L 171.329 33.877 L 171.329 47.004 L 192 47.004 L 192 54.699 Z " fill="rgb(255,255,255)"/></g></g></svg>